<svg width="32" height="32" viewBox="0 0 32 32" fill="none" xmlns="http://www.w3.org/2000/svg">
<rect width="32" height="32" rx="5" fill="white"/>
<path fill-rule="evenodd" clip-rule="evenodd" d="M31.0588 18.0838C31.0588 18.0838 29.3591 19.2281 28.1713 19.7105C26.9835 20.193 25.2018 20.7857 23.0379 20.6755C20.8739 20.5652 17.9113 19.552 16.0682 18.7939C12.0888 17.157 6.32956 16.5581 2.98562 19.7451C2.13232 20.5583 1.43262 22.2401 1.43262 22.2401C3.32758 20.1424 5.49872 18.7434 8.87671 18.8663C10.8646 18.9386 12.7227 19.4213 14.7252 20.029C16.1131 20.4502 17.3169 20.9764 18.5527 21.3661C19.7585 21.7463 20.9964 21.9948 22.3484 22.0334C25.4665 22.1223 29.2409 20.7469 31.0588 18.0838Z" fill="#009BE5"/>
<path fill-rule="evenodd" clip-rule="evenodd" d="M14.7373 13.7934V15.0444H15.9558V13.7934H14.7373Z" fill="#009BE5"/>
<path fill-rule="evenodd" clip-rule="evenodd" d="M16.3037 13.7934V15.0444H17.5222V13.7934H16.3037Z" fill="#009BE5"/>
<path fill-rule="evenodd" clip-rule="evenodd" d="M16.3037 11.7101L17.5222 12.9577V13.4884H16.3037V11.7101Z" fill="#009BE5"/>
<path fill-rule="evenodd" clip-rule="evenodd" d="M15.9558 11.7101L14.7373 12.9577V13.4884H15.9558V11.7101Z" fill="#009BE5"/>
<path fill-rule="evenodd" clip-rule="evenodd" d="M16.1558 5.45882L27.9606 17.4185L26.973 18.4153L15.1309 6.49066L16.1558 5.45882Z" fill="#009BE5"/>
<path fill-rule="evenodd" clip-rule="evenodd" d="M16.1558 5.45882L13.4246 8.20821L14.424 9.22046L17.1773 6.4937L16.1558 5.45882Z" fill="#009BE5"/>
<path fill-rule="evenodd" clip-rule="evenodd" d="M13.898 17.3036L12.688 16.1276L12.3826 16.4041L11.862 15.8154L11.9995 15.6399C11.9995 15.6399 11.2692 14.8009 11.0371 14.2632C10.805 13.7256 10.5354 13.1122 11.334 12.2989C12.1326 11.4856 13.8785 9.75043 13.8785 9.75043L12.8784 8.74414L4.29272 17.4148L4.58965 17.7216C4.58965 17.7216 5.15462 17.4098 5.73485 17.234C6.31509 17.0583 6.71442 16.9928 6.71442 16.9928C6.96499 16.732 7.712 15.9788 7.712 15.9788C8.11585 15.5411 8.37818 15.2644 8.98418 15.3352C9.62162 15.4096 10.343 15.9234 10.6191 16.1485C10.8952 16.3735 11.1037 16.5552 11.1037 16.5552L11.276 16.3846L11.8 16.9153C11.8049 16.9202 12.2327 16.9428 12.6763 17.0285C13.1154 17.1133 13.5984 17.2122 13.898 17.3036Z" fill="#009BE5"/>
<path fill-rule="evenodd" clip-rule="evenodd" d="M3.77905 16.813L12.2979 8.24799L12.651 8.51216L4.06231 17.1927L3.77905 16.813Z" fill="#009BE5"/>
<path fill-rule="evenodd" clip-rule="evenodd" d="M30.5673 20.6064C30.5673 20.6064 28.8676 21.7507 27.6798 22.2332C26.492 22.7156 24.7103 23.3084 22.5464 23.1981C20.3824 23.0878 17.4199 22.0747 15.5767 21.3165C11.5974 19.6796 5.8381 19.0807 2.49416 22.2677C1.64086 23.081 0.941162 24.7627 0.941162 24.7627C2.83612 22.665 5.00725 21.266 8.38525 21.3889C10.3731 21.4613 12.2312 21.9439 14.2337 22.5517C15.6216 22.9728 16.8255 23.4991 18.0612 23.8887C19.2671 24.2689 20.505 24.5175 21.8569 24.556C24.975 24.645 28.7495 23.2695 30.5673 20.6064Z" fill="#009BE5"/>
</svg>
