<svg width="85" height="44" viewBox="0 0 85 44" fill="none" xmlns="http://www.w3.org/2000/svg">
<rect x="5.22168" width="81" height="29" rx="14.5" transform="rotate(10.3728 5.22168 0)" fill="url(#paint0_linear_128_1016)" fill-opacity="0.7"/>
<mask id="mask0_128_1016" style="mask-type:alpha" maskUnits="userSpaceOnUse" x="13" y="10" width="15" height="15">
<path d="M19.3226 10.7598C18.6364 10.6674 18.1518 10.6913 17.7167 10.7761C17.2664 10.863 16.8699 11.0174 16.4503 11.3084C16.0302 11.5996 15.747 11.9166 15.5073 12.3076C15.2754 12.6859 15.0836 13.1312 14.9289 13.8064C14.7743 14.4829 14.7276 14.6992 14.4131 16.436C14.0987 18.1727 14.0665 18.392 13.9741 19.0801C13.8821 19.7662 13.9057 20.2505 13.9904 20.6859C14.0776 21.1362 14.2317 21.5325 14.5229 21.9524C14.8139 22.3722 15.1312 22.6553 15.5223 22.8951C15.9002 23.1268 16.3457 23.319 17.0207 23.4734C17.6972 23.6283 17.9137 23.6748 19.6501 23.9892C21.3873 24.3038 21.6065 24.3359 22.2943 24.4285C22.9806 24.5205 23.4648 24.4965 23.9003 24.4122C24.3507 24.3246 24.7471 24.1709 25.1667 23.8797C25.5863 23.5886 25.8696 23.2714 26.1093 22.8802C26.3412 22.5024 26.5334 22.0569 26.6875 21.3822C26.8423 20.7053 26.8892 20.4886 27.2036 18.752C27.5181 17.0152 27.5501 16.7962 27.6426 16.1085C27.7348 15.4219 27.7109 14.9377 27.6264 14.5022C27.539 14.0518 27.385 13.6557 27.0941 13.2357C26.803 12.8161 26.4859 12.5324 26.0946 12.2931C25.7166 12.0612 25.2713 11.8688 24.5962 11.7148C23.9198 11.5598 23.7033 11.5133 21.9663 11.1988C20.2297 10.8843 20.0106 10.8519 19.3226 10.7598ZM17.2815 22.3318C16.6631 22.1906 16.3436 22.0251 16.1339 21.897C15.8563 21.7267 15.6685 21.5491 15.4849 21.2853C15.3019 21.0208 15.2018 20.7828 15.1398 20.4633C15.0934 20.2217 15.0499 19.8643 15.1348 19.2356C15.2264 18.5559 15.2562 18.3524 15.5656 16.6446C15.8747 14.9372 15.9179 14.7362 16.0708 14.067C16.2115 13.449 16.3778 13.1292 16.5056 12.9196C16.676 12.6416 16.8531 12.4542 17.1173 12.2706C17.3818 12.0872 17.6198 11.9875 17.9394 11.9255C18.1809 11.8787 18.5382 11.836 19.1667 11.9204C19.8469 12.0119 20.0501 12.0421 21.7575 12.3512C23.4653 12.6603 23.6664 12.7034 24.3354 12.8565C24.9534 12.9976 25.2734 13.1628 25.4826 13.2912C25.7604 13.4616 25.9484 13.6383 26.1316 13.9029C26.3148 14.1675 26.415 14.405 26.4769 14.7253C26.5238 14.9662 26.5665 15.3238 26.4819 15.9522C26.3905 16.6324 26.3608 16.8359 26.0515 18.5432C25.7423 20.2511 25.6991 20.4521 25.546 21.1208C25.4048 21.7392 25.2394 22.059 25.1111 22.2688C24.9409 22.5462 24.7637 22.7341 24.4993 22.9176C24.2351 23.1002 23.997 23.2007 23.6771 23.2627C23.4361 23.3094 23.0784 23.3522 22.4502 23.2679C21.7701 23.1761 21.5668 23.1464 19.8589 22.837C18.1515 22.5279 17.9507 22.4845 17.2815 22.3318ZM24.0729 14.6593C23.9962 15.0829 24.2777 15.4888 24.7013 15.5654C25.1251 15.6422 25.5309 15.3608 25.6078 14.9373C25.6845 14.5137 25.403 14.1076 24.9792 14.0309C24.5554 13.9542 24.1496 14.2357 24.0729 14.6593ZM17.5243 16.9993C17.1959 18.8132 18.4001 20.5495 20.2136 20.8778C22.0273 21.2062 23.7643 20.0025 24.0927 18.1886C24.421 16.3753 23.2167 14.6381 21.4028 14.3097C19.5893 13.9814 17.8526 15.1858 17.5243 16.9993ZM18.6763 17.2078C18.8897 16.0306 20.0172 15.2489 21.1942 15.4622C22.3715 15.6753 23.1535 16.8025 22.9403 17.98C22.7271 19.1575 21.5996 19.939 20.4221 19.7258C19.2451 19.5127 18.4631 18.3853 18.6763 17.2078Z" fill="#000008"/>
</mask>
<g mask="url(#mask0_128_1016)">
<rect x="15.1475" y="9.39648" width="14.1537" height="14.1537" transform="rotate(10.3728 15.1475 9.39648)" fill="url(#paint1_radial_128_1016)"/>
<g filter="url(#filter1_f_128_1016)">
<ellipse cx="17.85" cy="9.34362" rx="8.16563" ry="5.71594" transform="rotate(-4.55888 17.85 9.34362)" fill="#7334FF"/>
</g>
<g filter="url(#filter2_f_128_1016)">
<circle cx="28.607" cy="11.9525" r="7.71198" transform="rotate(10.3728 28.607 11.9525)" fill="#B202F5"/>
</g>
<g filter="url(#filter3_f_128_1016)">
<circle cx="15.5378" cy="22.3811" r="4.355" transform="rotate(10.3728 15.5378 22.3811)" fill="#FFB401"/>
</g>
</g>
<path d="M31.3829 26.1376L33.6516 13.7435L35.2451 14.0352L32.9764 26.4293L31.3829 26.1376ZM35.8094 26.9478L38.078 14.5537L40.3798 14.9751L44.5584 26.5364L44.5938 26.5429L44.6085 26.3626L46.4883 16.0932L48.0818 16.3849L45.8132 28.7789L43.5114 28.3576L39.3328 16.7963L39.2973 16.7898L39.2826 16.9701L37.4061 27.2218L35.8094 26.9478ZM48.5791 25.6254L50.1727 25.9171C50.2204 26.3894 50.3594 26.8297 50.5897 27.2378C51.1059 28.1496 52.0015 28.7222 53.2763 28.9556C54.2914 29.1414 55.0954 29.0812 55.6882 28.7749C56.2929 28.4708 56.6514 28.0119 56.7637 27.3981C56.8588 26.8787 56.7219 26.4267 56.3532 26.042C55.9844 25.6573 55.431 25.2815 54.693 24.9146C54.56 24.8415 54.3417 24.7344 54.0382 24.5935C53.7464 24.4547 53.5163 24.3455 53.3479 24.2658C53.1795 24.1862 52.9563 24.0722 52.6785 23.9237C52.4007 23.7753 52.1798 23.6494 52.0157 23.5462C51.8537 23.4312 51.6596 23.2919 51.4334 23.1285C51.2092 22.9533 51.0313 22.7926 50.8994 22.6465C50.7794 22.5026 50.6459 22.3317 50.4991 22.1341C50.3663 21.9268 50.2699 21.72 50.2101 21.5139C50.162 21.3099 50.1242 21.0834 50.0966 20.8343C50.0808 20.5875 50.0977 20.3283 50.1474 20.0568C50.3246 19.0889 50.8841 18.3312 51.8261 17.7839C52.768 17.2366 53.9 17.0839 55.2221 17.3259C56.969 17.6456 58.1852 18.466 58.8705 19.787C59.1554 20.3637 59.3221 20.9859 59.3706 21.6536L57.7771 21.3619C57.7314 21.0119 57.6019 20.6527 57.3888 20.2843C56.8584 19.5163 56.0443 19.0318 54.9466 18.8309C54.0613 18.6688 53.3281 18.742 52.7471 19.0504C52.18 19.3492 51.8446 19.7819 51.7409 20.3485C51.6912 20.62 51.7226 20.8819 51.835 21.1343C51.9474 21.3866 52.0958 21.609 52.2802 21.8013C52.4667 21.9819 52.7348 22.1834 53.0844 22.406C53.448 22.619 53.7698 22.7937 54.0498 22.9304C54.3298 23.067 54.7009 23.2387 55.1633 23.4453C55.6803 23.6863 56.1292 23.9332 56.5099 24.1859C56.8907 24.4385 57.2509 24.7363 57.5908 25.0791C57.9306 25.4219 58.1641 25.8123 58.2913 26.2504C58.4303 26.6906 58.4523 27.1704 58.3573 27.6897C58.1714 28.7049 57.5947 29.4899 56.627 30.0447C55.6614 30.5877 54.4527 30.7263 53.0008 30.4606C51.1004 30.1127 49.7969 29.2032 49.0902 27.7319C48.7786 27.1015 48.6083 26.3993 48.5791 25.6254ZM60.7185 20.2534L60.9939 18.7484L71.0863 20.5957L70.8108 22.1007L66.5614 21.3229L64.5682 32.2119L62.9747 31.9203L64.9679 21.0312L60.7185 20.2534Z" fill="#2A2A2A"/>
<defs>
<filter id="filter1_f_128_1016" x="-27.1527" y="-33.2416" width="90.0052" height="85.1705" filterUnits="userSpaceOnUse" color-interpolation-filters="sRGB">
<feFlood flood-opacity="0" result="BackgroundImageFix"/>
<feBlend mode="normal" in="SourceGraphic" in2="BackgroundImageFix" result="shape"/>
<feGaussianBlur stdDeviation="18.425" result="effect1_foregroundBlur_128_1016"/>
</filter>
<filter id="filter2_f_128_1016" x="-23.7731" y="-40.4275" width="104.76" height="104.76" filterUnits="userSpaceOnUse" color-interpolation-filters="sRGB">
<feFlood flood-opacity="0" result="BackgroundImageFix"/>
<feBlend mode="normal" in="SourceGraphic" in2="BackgroundImageFix" result="shape"/>
<feGaussianBlur stdDeviation="22.3333" result="effect1_foregroundBlur_128_1016"/>
</filter>
<filter id="filter3_f_128_1016" x="-24.5512" y="-17.708" width="80.1781" height="80.1782" filterUnits="userSpaceOnUse" color-interpolation-filters="sRGB">
<feFlood flood-opacity="0" result="BackgroundImageFix"/>
<feBlend mode="normal" in="SourceGraphic" in2="BackgroundImageFix" result="shape"/>
<feGaussianBlur stdDeviation="17.8667" result="effect1_foregroundBlur_128_1016"/>
</filter>
<linearGradient id="paint0_linear_128_1016" x1="35.1779" y1="0.823979" x2="59.7453" y2="46.0777" gradientUnits="userSpaceOnUse">
<stop stop-color="white"/>
<stop offset="0.60094" stop-color="#A2CDE1"/>
<stop offset="1" stop-color="#29AAED"/>
</linearGradient>
<radialGradient id="paint1_radial_128_1016" cx="0" cy="0" r="1" gradientUnits="userSpaceOnUse" gradientTransform="translate(20.7727 22.9151) rotate(-61.8868) scale(7.50917)">
<stop stop-color="#FFD502"/>
<stop offset="0.869374" stop-color="#FF1154"/>
</radialGradient>
</defs>
</svg>
