<svg width="123" height="69" viewBox="0 0 123 69" fill="none" xmlns="http://www.w3.org/2000/svg">
<rect x="8.64258" width="116" height="48" rx="24" transform="rotate(10.3728 8.64258 0)" fill="url(#paint0_linear_71_257)" fill-opacity="0.7"/>
<mask id="mask0_71_257" style="mask-type:alpha" maskUnits="userSpaceOnUse" x="20" y="12" width="35" height="35">
<path d="M34.1086 12.9069C32.4195 12.6795 31.2267 12.7383 30.1555 12.947C29.047 13.161 28.071 13.541 27.0382 14.2573C26.0042 14.974 25.307 15.7544 24.7171 16.7169C24.1461 17.6479 23.6741 18.7442 23.2934 20.4063C22.9127 22.0716 22.7978 22.6039 22.0237 26.8792C21.2497 31.1539 21.1704 31.6938 20.943 33.3877C20.7167 35.0765 20.7746 36.2687 20.9832 37.3403C21.1977 38.4489 21.5772 39.4243 22.294 40.4578C23.0102 41.4912 23.7913 42.188 24.7541 42.7785C25.6842 43.3488 26.7807 43.8219 28.4424 44.202C30.1076 44.5832 30.6405 44.6976 34.9147 45.4716C39.1909 46.2459 39.7303 46.3251 41.4236 46.5528C43.1128 46.7793 44.3047 46.7202 45.3767 46.5128C46.4854 46.2973 47.4611 45.9188 48.4941 45.2019C49.5269 44.4855 50.2243 43.7046 50.8143 42.7417C51.3851 41.8116 51.8582 40.7151 52.2376 39.0543C52.6185 37.388 52.734 36.8548 53.508 32.58C54.2822 28.3047 54.3608 27.7658 54.5885 26.073C54.8156 24.3828 54.7566 23.1909 54.5486 22.1188C54.3336 21.0102 53.9545 20.0353 53.2383 19.0015C52.5219 17.9686 51.7412 17.2702 50.7781 16.6813C49.8476 16.1104 48.7516 15.6368 47.0897 15.2578C45.4247 14.876 44.8918 14.7616 40.616 13.9874C36.3413 13.2134 35.8021 13.1337 34.1086 12.9069ZM29.0843 41.3919C27.5622 41.0442 26.7756 40.6367 26.2594 40.3214C25.5762 39.9023 25.1139 39.4651 24.662 38.8158C24.2115 38.1647 23.9651 37.5789 23.8123 36.7925C23.6983 36.1977 23.5911 35.318 23.8 33.7705C24.0256 32.0974 24.0989 31.5964 24.8605 27.3926C25.6213 23.1898 25.7277 22.6949 26.1041 21.0478C26.4505 19.5264 26.8597 18.7391 27.1744 18.2233C27.5937 17.5391 28.0297 17.0776 28.68 16.6259C29.3313 16.1743 29.9169 15.929 30.7038 15.7763C31.2983 15.6611 32.1776 15.5559 33.7248 15.7638C35.399 15.9891 35.8993 16.0632 40.1021 16.8241C44.3059 17.5851 44.8009 17.691 46.4479 18.0679C47.969 18.4153 48.7567 18.822 49.2717 19.1381C49.9555 19.5574 50.4181 19.9925 50.8692 20.6437C51.3202 21.295 51.5668 21.8798 51.7192 22.6681C51.8346 23.2611 51.9396 24.1415 51.7313 25.6881C51.5065 27.3624 51.4333 27.8634 50.6719 32.0661C49.9108 36.27 49.8044 36.7649 49.4278 38.4109C49.0801 39.933 48.6731 40.7202 48.3572 41.2368C47.9381 41.9196 47.5019 42.382 46.8511 42.8337C46.2007 43.2833 45.6147 43.5307 44.8274 43.6833C44.234 43.7981 43.3536 43.9036 41.8074 43.696C40.1333 43.4702 39.6328 43.397 35.4286 42.6354C31.2258 41.8745 30.7315 41.7677 29.0843 41.3919ZM45.8016 22.5057C45.6128 23.5484 46.3058 24.5474 47.3485 24.7362C48.3916 24.925 49.3906 24.2325 49.5799 23.1899C49.7686 22.1472 49.0757 21.1476 48.0325 20.9588C46.9894 20.77 45.9903 21.463 45.8016 22.5057ZM29.682 28.2657C28.8736 32.7307 31.8379 37.0046 36.3018 37.8128C40.7663 38.621 45.042 35.6581 45.8504 31.1931C46.6584 26.7295 43.6941 22.4535 39.2291 21.6452C34.7651 20.837 30.4901 23.8017 29.682 28.2657ZM32.5177 28.7789C33.0429 25.8811 35.8183 23.9569 38.7156 24.482C41.6136 25.0066 43.5384 27.7811 43.0136 30.6796C42.4889 33.5781 39.7136 35.5018 36.8151 34.977C33.9177 34.4525 31.9929 31.6774 32.5177 28.7789Z" fill="#000008"/>
</mask>
<g mask="url(#mask0_71_257)">
<rect x="23.8315" y="9.55103" width="34.84" height="34.84" transform="rotate(10.3728 23.8315 9.55103)" fill="url(#paint1_radial_71_257)"/>
<g filter="url(#filter1_f_71_257)">
<ellipse cx="30.4834" cy="9.42091" rx="20.1" ry="14.07" transform="rotate(-4.55888 30.4834 9.42091)" fill="#7334FF"/>
</g>
<g filter="url(#filter2_f_71_257)">
<circle cx="56.9631" cy="15.8428" r="18.9833" transform="rotate(10.3728 56.9631 15.8428)" fill="#B202F5"/>
</g>
<g filter="url(#filter3_f_71_257)">
<circle cx="24.7924" cy="41.5131" r="10.72" transform="rotate(10.3728 24.7924 41.5131)" fill="#FFB401"/>
</g>
</g>
<path d="M61.7994 39.7202L64.0681 27.3261L65.6616 27.6178L63.3929 40.0119L61.7994 39.7202ZM66.2259 40.5305L68.4945 28.1364L70.7963 28.5577L74.9749 40.119L75.0104 40.1255L75.0251 39.9452L76.9048 29.6758L78.4983 29.9675L76.2297 42.3616L73.9279 41.9403L69.7493 30.3789L69.7139 30.3725L69.6991 30.5528L67.8226 40.8044L66.2259 40.5305ZM78.9956 39.2081L80.5892 39.4998C80.6369 39.9721 80.7759 40.4123 81.0062 40.8204C81.5224 41.7323 82.418 42.3049 83.6928 42.5382C84.7079 42.724 85.5119 42.6638 86.1048 42.3576C86.7094 42.0535 87.0679 41.5945 87.1802 40.9807C87.2753 40.4613 87.1385 40.0093 86.7697 39.6246C86.4009 39.2399 85.8475 38.8642 85.1095 38.4973C84.9765 38.4241 84.7582 38.3171 84.4547 38.1761C84.1629 38.0373 83.9328 37.9281 83.7644 37.8485C83.596 37.7688 83.3728 37.6548 83.095 37.5064C82.8172 37.3579 82.5963 37.2321 82.4322 37.1288C82.2702 37.0138 82.0761 36.8746 81.8499 36.7112C81.6257 36.536 81.4478 36.3753 81.3159 36.2292C81.1959 36.0852 81.0625 35.9144 80.9156 35.7167C80.7828 35.5094 80.6864 35.3027 80.6266 35.0965C80.5785 34.8925 80.5407 34.666 80.5131 34.417C80.4973 34.1701 80.5142 33.9109 80.5639 33.6394C80.7411 32.6715 81.3006 31.9139 82.2426 31.3665C83.1845 30.8192 84.3165 30.6665 85.6386 30.9085C87.3855 31.2283 88.6017 32.0487 89.2871 33.3696C89.5719 33.9464 89.7386 34.5685 89.7872 35.2362L88.1936 34.9445C88.1479 34.5946 88.0184 34.2354 87.8053 33.867C87.2749 33.0989 86.4608 32.6144 85.3631 32.4135C84.4778 32.2515 83.7446 32.3246 83.1636 32.6331C82.5965 32.9318 82.2612 33.3645 82.1574 33.9311C82.1077 34.2026 82.1391 34.4645 82.2515 34.7169C82.3639 34.9693 82.5123 35.1916 82.6967 35.384C82.8832 35.5645 83.1513 35.7661 83.5009 35.9886C83.8645 36.2016 84.1863 36.3764 84.4663 36.513C84.7463 36.6497 85.1174 36.8213 85.5798 37.0279C86.0968 37.269 86.5457 37.5158 86.9265 37.7685C87.3072 38.0212 87.6675 38.3189 88.0073 38.6617C88.3471 39.0045 88.5806 39.3949 88.7078 39.833C88.8469 40.2732 88.8688 40.753 88.7738 41.2724C88.5879 42.2875 88.0112 43.0725 87.0435 43.6273C86.0779 44.1704 84.8692 44.309 83.4173 44.0432C81.5169 43.6954 80.2134 42.7858 79.5067 41.3145C79.1951 40.6841 79.0248 39.982 78.9956 39.2081ZM91.135 33.836L91.4104 32.331L101.503 34.1783L101.227 35.6833L96.9779 34.9055L94.9847 45.7946L93.3912 45.5029L95.3844 34.6138L91.135 33.836Z" fill="#2A2A2A"/>
<defs>
<filter id="filter1_f_71_257" x="-26.435" y="-41.5465" width="113.836" height="101.935" filterUnits="userSpaceOnUse" color-interpolation-filters="sRGB">
<feFlood flood-opacity="0" result="BackgroundImageFix"/>
<feBlend mode="normal" in="SourceGraphic" in2="BackgroundImageFix" result="shape"/>
<feGaussianBlur stdDeviation="18.425" result="effect1_foregroundBlur_71_257"/>
</filter>
<filter id="filter2_f_71_257" x="-6.69011" y="-47.8105" width="127.306" height="127.307" filterUnits="userSpaceOnUse" color-interpolation-filters="sRGB">
<feFlood flood-opacity="0" result="BackgroundImageFix"/>
<feBlend mode="normal" in="SourceGraphic" in2="BackgroundImageFix" result="shape"/>
<feGaussianBlur stdDeviation="22.3333" result="effect1_foregroundBlur_71_257"/>
</filter>
<filter id="filter3_f_71_257" x="-21.663" y="-4.9422" width="92.9105" height="92.9105" filterUnits="userSpaceOnUse" color-interpolation-filters="sRGB">
<feFlood flood-opacity="0" result="BackgroundImageFix"/>
<feBlend mode="normal" in="SourceGraphic" in2="BackgroundImageFix" result="shape"/>
<feGaussianBlur stdDeviation="17.8667" result="effect1_foregroundBlur_71_257"/>
</filter>
<linearGradient id="paint0_linear_71_257" x1="51.5428" y1="1.36383" x2="95.2029" y2="70.9476" gradientUnits="userSpaceOnUse">
<stop stop-color="white"/>
<stop offset="0.60094" stop-color="#A2CDE1"/>
<stop offset="1" stop-color="#29AAED"/>
</linearGradient>
<radialGradient id="paint1_radial_71_257" cx="0" cy="0" r="1" gradientUnits="userSpaceOnUse" gradientTransform="translate(37.6782 42.8277) rotate(-61.8868) scale(18.4841)">
<stop stop-color="#FFD502"/>
<stop offset="0.869374" stop-color="#FF1154"/>
</radialGradient>
</defs>
</svg>
