<svg width="73" height="41" viewBox="0 0 73 41" fill="none" xmlns="http://www.w3.org/2000/svg">
<rect y="12.0811" width="68" height="29" rx="14.5" transform="rotate(-10.2337 0 12.0811)" fill="url(#paint0_linear_128_1025)" fill-opacity="0.7"/>
<path d="M21.9367 29.4603C25.4694 28.8225 27.8163 25.4416 27.1785 21.9089C26.5407 18.3761 23.1598 16.0293 19.6271 16.6671C16.0943 17.3049 13.7475 20.6858 14.3853 24.2185C15.0231 27.7512 18.4039 30.0981 21.9367 29.4603Z" fill="url(#paint1_linear_128_1025)"/>
<path fill-rule="evenodd" clip-rule="evenodd" d="M17.2687 23.6282C18.9868 22.4791 20.1335 21.719 20.709 21.3479C22.352 20.2883 22.6979 20.0933 22.9378 20.0457C22.9905 20.0352 23.1112 20.0269 23.1991 20.0753C23.2733 20.1161 23.3039 20.1838 23.3214 20.2321C23.3389 20.2803 23.37 20.3918 23.3775 20.482C23.4639 21.5108 23.4905 24.0405 23.4831 25.2116C23.48 25.7072 23.3324 25.8998 23.1643 25.9464C22.799 26.0476 22.4665 25.8189 22.0641 25.648C21.4345 25.3806 21.075 25.2082 20.4635 24.9468C19.7568 24.6446 20.1249 24.342 20.4174 23.9032C20.4939 23.7883 21.8618 22.0042 21.8691 21.8634C21.87 21.8458 21.8623 21.7822 21.8189 21.7557C21.7755 21.7292 21.7224 21.7505 21.6842 21.7668C21.63 21.7898 20.838 22.5466 19.308 24.0372C19.0844 24.2586 18.8685 24.3858 18.6606 24.4187C18.4313 24.455 17.9695 24.4101 17.6238 24.3629C17.1997 24.305 16.8689 24.2937 16.8567 24.0675C16.8503 23.9497 16.9877 23.8033 17.2687 23.6282Z" fill="white"/>
<path d="M30.48 16.669L30.2082 15.1633L40.3049 13.3405L40.5768 14.8461L36.3255 15.6136L38.2922 26.5075L36.698 26.7953L34.7313 15.9014L30.48 16.669ZM45.0709 23.7473C43.6307 22.7269 42.7389 21.2661 42.3957 19.3649C42.0525 17.4636 42.3781 15.7891 43.3728 14.3414C44.377 12.8797 45.8121 11.9804 47.6779 11.6436C49.7091 11.2769 51.4779 11.7197 52.9844 12.9719C53.6491 13.547 54.1839 14.2126 54.5886 14.9687L52.9944 15.2565C52.672 14.7538 52.2657 14.3272 51.7756 13.9767C50.6185 13.1735 49.3432 12.8976 47.9498 13.1492C46.5209 13.4072 45.436 14.0847 44.6951 15.1818C43.9542 16.2789 43.7192 17.5773 43.9899 19.077C44.2607 20.5768 44.9349 21.7111 46.0127 22.4798C47.0904 23.2486 48.3437 23.504 49.7726 23.246C51.0126 23.0221 51.9857 22.4684 52.6919 21.5849C53.41 20.6992 53.7724 19.701 53.7792 18.5901L51.3878 19.0218L51.116 17.5162L56.6072 16.5248L56.879 18.0305L55.3734 18.3023C55.2972 19.9744 54.7975 21.3938 53.874 22.5604C52.9506 23.727 51.6741 24.4574 50.0444 24.7517C48.1786 25.0885 46.5207 24.7537 45.0709 23.7473Z" fill="#2A2A2A"/>
<defs>
<linearGradient id="paint0_linear_128_1025" x1="25.1484" y1="12.9051" x2="51.865" y2="54.2193" gradientUnits="userSpaceOnUse">
<stop stop-color="white"/>
<stop offset="0.60094" stop-color="#A2CDE1"/>
<stop offset="1" stop-color="#29AAED"/>
</linearGradient>
<linearGradient id="paint1_linear_128_1025" x1="652.89" y1="-97.6593" x2="882.139" y2="1172.17" gradientUnits="userSpaceOnUse">
<stop stop-color="#2AABEE"/>
<stop offset="1" stop-color="#229ED9"/>
</linearGradient>
</defs>
</svg>
