<svg width="119" height="70" viewBox="0 0 119 70" fill="none" xmlns="http://www.w3.org/2000/svg">
<rect y="22.6809" width="111" height="48" rx="24" transform="rotate(-11.6168 0 22.6809)" fill="url(#paint0_linear_71_258)" fill-opacity="0.7"/>
<path d="M41.3581 55.0151C50.0137 53.2358 55.5879 44.7766 53.8085 36.121C52.0292 27.4655 43.57 21.8912 34.9144 23.6706C26.2589 25.45 20.6847 33.9092 22.464 42.5647C24.2434 51.2203 32.7026 56.7945 41.3581 55.0151Z" fill="url(#paint1_linear_71_258)"/>
<path fill-rule="evenodd" clip-rule="evenodd" d="M29.5243 40.9408C33.6839 38.011 36.4607 36.0724 37.8547 35.125C41.8349 32.42 42.6746 31.9196 43.2619 31.788C43.3911 31.7591 43.6876 31.7316 43.9067 31.8454C44.0917 31.9415 44.171 32.1063 44.217 32.224C44.2629 32.3417 44.3461 32.6142 44.37 32.8355C44.6436 35.3622 44.8594 41.5858 44.9108 44.4681C44.9325 45.6877 44.5809 46.1704 44.17 46.2951C43.2771 46.5659 42.4452 46.0228 41.4449 45.6262C39.8796 45.0055 38.9847 44.6029 37.4644 43.9958C35.7074 43.2942 36.5953 42.5276 37.2888 41.4304C37.4703 41.1433 40.7305 36.6715 40.7401 36.3247C40.7413 36.2813 40.7186 36.1252 40.6102 36.0626C40.5018 36 40.3723 36.0556 40.2793 36.0978C40.1474 36.1577 38.2432 38.0671 34.5669 41.8262C34.0297 42.3843 33.5062 42.71 32.9963 42.8034C32.4343 42.9064 31.2953 42.8233 30.4416 42.7277C29.3946 42.6104 28.5798 42.6021 28.5364 42.0463C28.5137 41.7568 28.843 41.3883 29.5243 40.9408Z" fill="white"/>
<path d="M60.6192 28.3301L60.2085 26.3318L73.6082 23.5772L74.019 25.5754L68.377 26.7352L71.3492 41.1929L69.2334 41.6279L66.2613 27.1702L60.6192 28.3301ZM80.2959 37.2955C78.3433 35.9818 77.1077 34.0633 76.589 31.5401C76.0703 29.0168 76.4505 26.7743 77.7297 24.8126C79.0213 22.8319 80.9052 21.587 83.3814 21.078C86.0771 20.5238 88.449 21.0571 90.4974 22.6779C91.4019 23.423 92.1362 24.293 92.7 25.2878L90.5843 25.7227C90.1383 25.063 89.583 24.5075 88.9185 24.056C87.3503 23.0226 85.6416 22.696 83.7922 23.0762C81.8959 23.4661 80.4716 24.4041 79.5194 25.8903C78.5671 27.3765 78.2956 29.1147 78.7048 31.1051C79.1139 33.0955 80.0492 34.5857 81.5104 35.5757C82.9717 36.5657 84.6506 36.8658 86.5469 36.476C88.1925 36.1377 89.4718 35.3683 90.3847 34.1679C91.3134 32.9643 91.7643 31.622 91.7376 30.141L88.5639 30.7934L88.1532 28.7952L95.4408 27.2971L95.8515 29.2953L93.8533 29.7061C93.8057 31.9374 93.1852 33.8454 91.9918 35.4302C90.7985 37.0149 89.1205 38.0296 86.9577 38.4742C84.4815 38.9833 82.2609 38.5904 80.2959 37.2955Z" fill="#2A2A2A"/>
<defs>
<linearGradient id="paint0_linear_71_258" x1="41.0511" y1="24.0447" x2="85.5206" y2="91.8638" gradientUnits="userSpaceOnUse">
<stop stop-color="white"/>
<stop offset="0.60094" stop-color="#A2CDE1"/>
<stop offset="1" stop-color="#29AAED"/>
</linearGradient>
<linearGradient id="paint1_linear_71_258" x1="1586.47" y1="-295.291" x2="2226.06" y2="2815.91" gradientUnits="userSpaceOnUse">
<stop stop-color="#2AABEE"/>
<stop offset="1" stop-color="#229ED9"/>
</linearGradient>
</defs>
</svg>
