<svg width="163" height="26" viewBox="0 0 163 26" fill="none" xmlns="http://www.w3.org/2000/svg">
<path fill-rule="evenodd" clip-rule="evenodd" d="M40.0001 16.9485C40.0001 16.9485 37.7427 18.4683 36.1651 19.109C34.5876 19.7498 32.2213 20.537 29.3473 20.3906C26.4733 20.2441 22.5386 18.8985 20.0907 17.8916C14.8056 15.7176 7.15659 14.9222 2.71542 19.1549C1.58212 20.235 0.652832 22.4686 0.652832 22.4686C3.16958 19.6826 6.05312 17.8245 10.5395 17.9878C13.1797 18.0838 15.6474 18.7248 18.307 19.532C20.1503 20.0914 21.7492 20.7903 23.3904 21.3078C24.9919 21.8127 26.636 22.1428 28.4316 22.194C32.5728 22.3122 37.5857 20.4855 40.0001 16.9485Z" fill="#009BE5"/>
<path fill-rule="evenodd" clip-rule="evenodd" d="M18.323 11.2503V12.9118H19.9413V11.2503H18.323Z" fill="#009BE5"/>
<path fill-rule="evenodd" clip-rule="evenodd" d="M20.4036 11.2503V12.9118H22.0218V11.2503H20.4036Z" fill="#009BE5"/>
<path fill-rule="evenodd" clip-rule="evenodd" d="M20.4036 8.48354L22.0218 10.1405V10.8453H20.4036V8.48354Z" fill="#009BE5"/>
<path fill-rule="evenodd" clip-rule="evenodd" d="M19.9413 8.48354L18.323 10.1405V10.8453H19.9413V8.48354Z" fill="#009BE5"/>
<path fill-rule="evenodd" clip-rule="evenodd" d="M20.207 0.180992L35.8851 16.065L34.5736 17.3888L18.8457 1.5514L20.207 0.180992Z" fill="#009BE5"/>
<path fill-rule="evenodd" clip-rule="evenodd" d="M20.207 0.180992L16.5796 3.83253L17.907 5.17692L21.5636 1.55544L20.207 0.180992Z" fill="#009BE5"/>
<path fill-rule="evenodd" clip-rule="evenodd" d="M17.2084 15.9123L15.6014 14.3504L15.1957 14.7177L14.5043 13.9358L14.687 13.7028C14.687 13.7028 13.717 12.5884 13.4088 11.8744C13.1005 11.1603 12.7424 10.3457 13.8031 9.2655C14.8638 8.18533 17.1825 5.88078 17.1825 5.88078L15.8543 4.5443L4.45142 16.0601L4.84577 16.4675C4.84577 16.4675 5.59612 16.0534 6.36674 15.82C7.13737 15.5865 7.66773 15.4995 7.66773 15.4995C8.00052 15.1531 8.99264 14.1528 8.99264 14.1528C9.529 13.5715 9.87741 13.2041 10.6823 13.298C11.5289 13.3968 12.4869 14.0793 12.8536 14.3782C13.2203 14.6771 13.4973 14.9183 13.4973 14.9183L13.7261 14.6918L14.422 15.3966C14.4286 15.4031 14.9967 15.4331 15.5859 15.5469C16.169 15.6595 16.8105 15.7909 17.2084 15.9123Z" fill="#009BE5"/>
<path fill-rule="evenodd" clip-rule="evenodd" d="M3.7688 15.2607L15.0829 3.88535L15.5519 4.23621L4.145 15.765L3.7688 15.2607Z" fill="#009BE5"/>
<path fill-rule="evenodd" clip-rule="evenodd" d="M39.3472 20.2989C39.3472 20.2989 37.0898 21.8187 35.5123 22.4594C33.9347 23.1002 31.5684 23.8875 28.6944 23.741C25.8205 23.5945 21.8858 22.2489 19.4379 21.242C14.1528 19.068 6.50374 18.2726 2.06258 22.5053C0.929289 23.5854 0 25.819 0 25.819C2.51674 23.033 5.40028 21.1749 9.88668 21.3382C12.5268 21.4342 14.9946 22.0752 17.6541 22.8824C19.4975 23.4418 21.0963 24.1407 22.7376 24.6582C24.3391 25.1631 25.9832 25.4932 27.7787 25.5445C31.92 25.6626 36.9329 23.8359 39.3472 20.2989Z" fill="#009BE5"/>
<path fill-rule="evenodd" clip-rule="evenodd" d="M78.322 2.01535C78.9368 2.01535 79.5581 2.07349 80.1857 2.18983C80.8133 2.30636 81.3128 2.47436 81.6842 2.69418C81.7996 2.746 81.8732 2.80103 81.9053 2.85917C81.9373 2.91736 81.9597 3.01752 81.9724 3.15987L82.1837 5.33261C82.1837 5.37143 82.1517 5.39391 82.0878 5.40043C82.0238 5.40692 81.9853 5.39075 81.9724 5.35194C81.6906 4.35607 81.1687 3.62221 80.4066 3.15019C79.6444 2.67801 78.6999 2.44203 77.5726 2.44203C76.5992 2.44203 75.7474 2.65869 75.0173 3.09185C74.2872 3.52521 73.7237 4.13621 73.3267 4.92509C72.9295 5.7141 72.7311 6.6258 72.7311 7.66048C72.7311 8.8632 72.9775 9.9754 73.4708 10.9971C73.9638 12.0188 74.6299 12.8271 75.4688 13.422C76.3079 14.017 77.2141 14.3143 78.1875 14.3143C79.1098 14.3143 79.9102 14.059 80.5891 13.5481C81.2679 13.0373 81.7867 12.2516 82.1454 11.1911C82.1454 11.1523 82.171 11.1329 82.2222 11.1329C82.2607 11.1329 82.2958 11.1394 82.3278 11.1523C82.3599 11.1653 82.3759 11.1846 82.3759 11.2104L82.107 13.4026C82.0814 13.5578 82.0525 13.658 82.0205 13.7033C81.9884 13.7485 81.9148 13.797 81.7996 13.8488C80.6467 14.3402 79.43 14.586 78.149 14.586C76.6121 14.586 75.328 14.2723 74.297 13.6451C73.2658 13.0178 72.5069 12.2193 72.0201 11.2493C71.5335 10.2794 71.29 9.2577 71.29 8.18416C71.29 6.99445 71.6167 5.92744 72.2699 4.9834C72.9232 4.0392 73.7877 3.30855 74.8636 2.79119C75.9396 2.27403 77.0924 2.01535 78.322 2.01535ZM86.8333 2.57784C86.0264 2.57784 85.4211 2.78487 85.0177 3.1987C84.6142 3.61253 84.3229 4.31741 84.1434 5.31307C84.1434 5.33908 84.1083 5.35194 84.0378 5.35194C83.9673 5.35194 83.9322 5.33908 83.9322 5.31307C83.9833 4.84757 84.0409 4.23973 84.105 3.48954C84.169 2.73951 84.201 2.17702 84.201 1.8018C84.201 1.73713 84.2364 1.70479 84.3069 1.70479C84.3772 1.70479 84.4125 1.73713 84.4125 1.8018C84.4125 2.08633 84.7583 2.22868 85.45 2.22868C86.5386 2.2675 87.826 2.28682 89.3118 2.28682C90.0675 2.28682 90.8679 2.27402 91.7135 2.24801L93.0198 2.22868C93.481 2.22868 93.8235 2.19635 94.0477 2.13168C94.2718 2.06701 94.416 1.93767 94.48 1.74366C94.4929 1.692 94.5312 1.66614 94.5952 1.66614C94.6593 1.66614 94.6913 1.692 94.6913 1.74366C94.653 2.11867 94.6146 2.68785 94.5761 3.45089C94.5376 4.21388 94.5185 4.83457 94.5185 5.31307C94.5185 5.33908 94.48 5.35194 94.4033 5.35194C94.3263 5.35194 94.2879 5.33908 94.2879 5.31307C94.2494 4.3044 94.0446 3.59635 93.6732 3.18884C93.3016 2.7815 92.6869 2.57784 91.8287 2.57784C91.2522 2.57784 90.8424 2.6037 90.599 2.65552C90.3557 2.70718 90.1891 2.8172 90.0995 2.98519C90.0099 3.15335 89.965 3.43789 89.965 3.83887V12.7818C89.965 13.1828 90.0099 13.4738 90.0995 13.6548C90.1891 13.8358 90.362 13.9586 90.6182 14.0233C90.8744 14.088 91.2778 14.1203 91.8287 14.1203C91.8671 14.1203 91.8863 14.1592 91.8863 14.2369C91.8863 14.3143 91.8671 14.3532 91.8287 14.3532C91.4059 14.3532 91.0665 14.3467 90.8103 14.3339L89.3118 14.3143L87.8707 14.3339C87.6145 14.3467 87.2625 14.3532 86.8141 14.3532C86.7885 14.3532 86.7756 14.3143 86.7756 14.2369C86.7756 14.1592 86.7885 14.1203 86.8141 14.1203C87.3648 14.1203 87.7682 14.088 88.0244 14.0233C88.2806 13.9586 88.4567 13.8327 88.5528 13.6451C88.6489 13.4577 88.6969 13.1698 88.6969 12.7818V3.80006C88.6969 3.39903 88.6522 3.11786 88.5624 2.95618C88.4727 2.79451 88.3062 2.69102 88.0629 2.64568C87.8196 2.6005 87.4097 2.57784 86.8333 2.57784ZM102.165 14.586C100.974 14.586 99.914 14.3047 98.9855 13.7421C98.0568 13.1795 97.3395 12.4165 96.8336 11.4529C96.3276 10.4896 96.0746 9.43871 96.0746 8.30066C96.0746 6.96848 96.4077 5.82728 97.0738 4.87676C97.7398 3.92603 98.5947 3.21154 99.6387 2.73299C100.683 2.25449 101.749 2.01535 102.838 2.01535C104.054 2.01535 105.124 2.30299 106.046 2.8785C106.968 3.45405 107.676 4.21388 108.169 5.15792C108.662 6.10212 108.909 7.1043 108.909 8.16483C108.909 9.3417 108.602 10.4216 107.987 11.4044C107.372 12.3874 106.549 13.1633 105.518 13.7323C104.487 14.3015 103.369 14.586 102.165 14.586ZM102.838 14.1785C103.709 14.1785 104.493 13.9652 105.191 13.5385C105.889 13.1117 106.44 12.4844 106.844 11.6568C107.247 10.8289 107.449 9.84606 107.449 8.70801C107.449 7.49233 107.224 6.41246 106.776 5.46826C106.328 4.52422 105.697 3.78705 104.884 3.25688C104.07 2.72651 103.119 2.46152 102.031 2.46152C100.622 2.46152 99.5201 2.92053 98.726 3.83887C97.9318 4.75706 97.5348 6.01792 97.5348 7.62167C97.5348 8.83735 97.759 9.94638 98.2073 10.9486C98.6556 11.9509 99.2833 12.7398 100.09 13.3153C100.897 13.8908 101.813 14.1785 102.838 14.1785ZM113.378 2.57784C112.571 2.57784 111.966 2.78487 111.562 3.1987C111.159 3.61253 110.863 4.31668 110.688 5.31307C110.684 5.33839 110.653 5.35194 110.582 5.35194C110.512 5.35194 110.474 5.33872 110.477 5.31307C110.525 4.84741 110.586 4.23953 110.65 3.48954C110.714 2.73968 110.746 2.17702 110.746 1.8018C110.746 1.73713 110.781 1.70479 110.852 1.70479C110.922 1.70479 110.957 1.73713 110.957 1.8018C110.957 2.08633 111.303 2.21373 111.995 2.22868C113.084 2.25222 114.371 2.28682 115.856 2.28682C116.612 2.28682 117.412 2.26049 118.258 2.24801L119.564 2.22868C120.026 2.22183 120.368 2.19635 120.592 2.13168C120.817 2.06701 120.964 1.93856 121.025 1.74366C121.041 1.69305 121.076 1.66614 121.14 1.66614C121.204 1.66614 121.241 1.69252 121.236 1.74366C121.203 2.119 121.159 2.68785 121.121 3.45089C121.082 4.21388 121.063 4.83457 121.063 5.31307C121.063 5.33908 121.025 5.35194 120.948 5.35194C120.871 5.35194 120.833 5.33872 120.833 5.31307C120.795 4.3044 120.589 3.59619 120.218 3.18884C119.846 2.7815 119.232 2.57784 118.373 2.57784C117.797 2.57784 117.387 2.60386 117.144 2.65552C116.901 2.70702 116.734 2.81736 116.644 2.98519C116.555 3.15319 116.51 3.43821 116.51 3.83887V12.7818C116.51 13.1824 116.555 13.4738 116.644 13.6548C116.734 13.8358 116.907 13.9586 117.163 14.0233C117.419 14.088 117.822 14.1203 118.373 14.1203C118.412 14.1203 118.431 14.1592 118.431 14.2369C118.431 14.3143 118.412 14.3532 118.373 14.3532C117.951 14.3532 117.611 14.3372 117.355 14.3339L115.856 14.3143L114.415 14.3339C114.159 14.3371 113.807 14.3532 113.359 14.3532C113.333 14.3532 113.32 14.3143 113.32 14.2369C113.32 14.1592 113.333 14.1203 113.359 14.1203C113.909 14.1203 114.313 14.088 114.569 14.0233C114.825 13.9586 115.001 13.8327 115.097 13.6451C115.194 13.4577 115.242 13.1698 115.242 12.7818V3.80006C115.242 3.39903 115.197 3.1177 115.107 2.95618C115.018 2.79471 114.851 2.69086 114.608 2.64568C114.364 2.6007 113.954 2.57784 113.378 2.57784Z" fill="#2A3541"/>
<path fill-rule="evenodd" clip-rule="evenodd" d="M144.538 13.798H147.234C148.202 13.798 149.669 13.8687 149.957 13.8264C150.034 13.8153 150.037 13.7601 150.006 13.6798C149.697 12.8936 146.551 5.23086 146.513 5.15177C146.28 4.66642 146.18 4.30052 146.094 4.30125C146.025 4.30206 145.971 4.51018 145.963 4.52987L142.61 12.6563C142.392 13.1863 142.204 13.6875 142.204 13.7418C142.204 13.7745 142.243 13.7857 142.309 13.7961C142.576 13.8381 143.666 13.798 144.538 13.798ZM149.167 14.2453H143.711C142.884 14.2453 141.895 14.3786 141.195 15.1659C140.728 15.6914 140.56 16.6554 140.532 17.0241C140.517 17.209 140.462 17.301 140.386 17.301C140.311 17.301 140.273 17.2033 140.273 17.0078C140.273 16.7036 140.237 14.7783 140.169 13.877C140.162 13.7794 140.195 13.8485 140.263 13.8146C140.297 13.797 141.516 13.798 141.516 13.798C141.691 13.7562 141.831 13.6021 141.875 13.491L146.108 2.80298C146.288 2.34976 146.415 2.11868 146.512 2.11868C146.587 2.11868 146.813 2.43234 146.899 2.61456C148.582 6.17312 149.935 9.91686 151.423 13.5492C151.449 13.612 151.487 13.7425 151.54 13.7831L152.627 13.8003C152.681 13.7896 152.713 13.7924 152.724 13.8086C152.735 13.8248 152.736 13.8661 152.724 13.9307C152.596 14.6261 152.603 16.3393 152.603 16.9041C152.603 17.067 152.566 17.1485 152.49 17.1485C152.415 17.1485 152.357 17.0671 152.345 16.9041C152.174 14.6185 151.06 14.2453 149.167 14.2453Z" fill="#2A3541"/>
<path fill-rule="evenodd" clip-rule="evenodd" d="M159.468 7.54077C160.469 7.61759 161.278 7.95355 161.892 8.54875C162.507 9.14399 162.815 9.88308 162.815 10.7664C162.815 11.4447 162.65 12.0591 162.32 12.6095C161.991 13.1599 161.537 13.5919 160.961 13.9055C160.384 14.2192 159.741 14.3759 159.031 14.3759C158.612 14.3759 158.156 14.3566 157.662 14.3183C157.484 14.3056 157.275 14.2927 157.034 14.2799C156.793 14.2671 156.527 14.2607 156.235 14.2607L154.942 14.2799C154.714 14.2927 154.391 14.2991 153.972 14.2991C153.947 14.2991 153.934 14.2607 153.934 14.1839C153.934 14.1071 153.947 14.0687 153.972 14.0687C154.454 14.0687 154.809 14.0335 155.037 13.9632C155.266 13.8927 155.424 13.7679 155.513 13.5887C155.601 13.4095 155.646 13.1279 155.646 12.7439V3.85441C155.646 3.47032 155.605 3.18883 155.522 3.00965C155.44 2.83034 155.285 2.70558 155.056 2.6352C154.828 2.56477 154.479 2.52964 154.01 2.52964C153.972 2.52964 153.953 2.49115 153.953 2.41441C153.953 2.33758 153.972 2.29921 154.01 2.29921L154.942 2.31841C155.475 2.34402 155.906 2.35675 156.235 2.35675C156.464 2.35675 156.676 2.35034 156.872 2.33758C157.069 2.32482 157.237 2.31197 157.376 2.29921C157.769 2.26075 158.137 2.24155 158.479 2.24155C159.544 2.24155 160.343 2.47519 160.875 2.9423C161.408 3.40958 161.674 4.02074 161.674 4.77596C161.674 5.39032 161.477 5.93755 161.084 6.41755C160.691 6.89755 160.153 7.27196 159.468 7.54077ZM158.061 2.52964C157.731 2.52964 157.487 2.55513 157.329 2.60635C157.17 2.65757 157.053 2.77921 156.977 2.97115C156.901 3.16322 156.863 3.47032 156.863 3.89278V7.54077L157.718 7.55993C158.644 7.55993 159.329 7.31998 159.772 6.83997C160.216 6.35997 160.438 5.72319 160.438 4.92953C160.438 4.21277 160.244 3.63353 159.858 3.19203C159.471 2.7504 158.872 2.52964 158.061 2.52964ZM158.745 14.0303C159.671 14.0303 160.358 13.7903 160.808 13.3103C161.259 12.8303 161.484 12.1423 161.484 11.2464C161.484 10.2735 161.201 9.48638 160.637 8.88474C160.073 8.28322 159.297 7.97596 158.308 7.96319C157.902 7.95035 157.421 7.96319 156.863 8.00156V12.7439C156.863 13.0768 156.91 13.3327 157.005 13.5118C157.1 13.6911 157.284 13.8223 157.557 13.9055C157.829 13.9888 158.226 14.0303 158.745 14.0303Z" fill="#2A3541"/>
<path fill-rule="evenodd" clip-rule="evenodd" d="M55.3142 14.0686C55.3522 14.0686 55.3712 14.107 55.3712 14.1838C55.3712 14.2606 55.3522 14.299 55.3142 14.299C54.9212 14.299 54.6043 14.2925 54.3634 14.2798L53.0514 14.2606L51.7013 14.2798C51.4857 14.2925 51.1815 14.299 50.7885 14.299C50.7505 14.299 50.7315 14.2606 50.7315 14.1838C50.7315 14.107 50.7505 14.0686 50.7885 14.0686C51.2703 14.0686 51.622 14.0365 51.8438 13.9725C52.0657 13.9086 52.2147 13.7869 52.2907 13.6077C52.3668 13.4286 52.4048 13.1406 52.4048 12.7438V8.44305C51.3526 9.19815 50.2624 9.57583 49.1341 9.57583C48.0946 9.57583 47.2579 9.29418 46.624 8.73103C45.9902 8.16788 45.6733 7.41266 45.6733 6.46542V3.85431C45.6733 3.47022 45.6321 3.18869 45.5497 3.00951C45.4673 2.8302 45.3152 2.70544 45.0933 2.63506C44.8715 2.56463 44.526 2.5295 44.057 2.5295C44.019 2.5295 43.9999 2.49101 43.9999 2.4143C43.9999 2.33744 44.019 2.29907 44.057 2.29907L44.8557 2.31827C45.3627 2.34388 45.8191 2.35664 46.2248 2.35664C46.6051 2.35664 47.0488 2.34388 47.5558 2.31827L48.2974 2.29907C48.3356 2.29907 48.3545 2.33744 48.3545 2.4143C48.3545 2.49101 48.3356 2.5295 48.2974 2.5295C47.8918 2.5295 47.5908 2.56788 47.3942 2.64458C47.1977 2.72141 47.0646 2.85261 46.9949 3.03819C46.9252 3.22382 46.8903 3.50867 46.8903 3.89264V5.79348C46.8903 6.88145 47.1248 7.70705 47.5938 8.27019C48.063 8.83338 48.7348 9.115 49.6095 9.115C50.5603 9.115 51.4921 8.79501 52.4048 8.15499V3.89264C52.4048 3.50867 52.3699 3.22382 52.3002 3.03819C52.2305 2.85261 52.1006 2.72141 51.9105 2.64458C51.7203 2.56788 51.416 2.5295 50.9977 2.5295C50.9723 2.5295 50.9597 2.49101 50.9597 2.4143C50.9597 2.33744 50.9723 2.29907 50.9977 2.29907L51.8344 2.31827C52.3414 2.34388 52.7472 2.35664 53.0514 2.35664C53.3936 2.35664 53.831 2.34388 54.3634 2.31827L55.3142 2.29907C55.3522 2.29907 55.3712 2.33744 55.3712 2.4143C55.3712 2.49101 55.3522 2.5295 55.3142 2.5295C54.8324 2.5295 54.4743 2.56463 54.2398 2.63506C54.0053 2.70544 53.8468 2.8302 53.7645 3.00951C53.682 3.18869 53.6408 3.47022 53.6408 3.85431V12.7438C53.6408 13.1277 53.682 13.4126 53.7645 13.5982C53.8468 13.7838 54.0053 13.9086 54.2398 13.9725C54.4743 14.0365 54.8324 14.0686 55.3142 14.0686Z" fill="#2A3541"/>
<path fill-rule="evenodd" clip-rule="evenodd" d="M59.4466 4.13172L59.4162 12.2283C60.1256 11.3442 61.4306 9.69817 63.3303 7.29083C65.2301 4.88349 66.2868 3.47983 66.6423 3.0337C67.1477 2.39871 67.4783 2.08213 67.6301 2.08213C67.6909 2.08213 67.7341 2.1107 67.7594 2.16791C67.7847 2.22509 67.8078 2.36298 67.8279 2.58126C67.8479 2.79938 67.8581 3.12731 67.8581 3.56403C67.8581 7.36004 67.873 10.2308 67.9038 12.1754C67.913 12.7574 67.9624 13.3695 68.0482 13.6033C68.134 13.8371 68.2947 13.9749 68.5271 14.0167C68.6381 14.0366 68.9733 14.0739 69.2567 14.0934C69.3267 14.0981 69.4339 14.1039 69.4751 14.1051C69.4751 14.1051 69.4763 14.2859 69.466 14.2906C69.4299 14.307 69.3236 14.3117 69.2567 14.3117C69.044 14.3117 68.5113 14.2894 67.9342 14.274C67.357 14.259 67.0424 14.2507 66.9917 14.2507C66.9005 14.2507 66.7001 14.259 66.3914 14.274C66.0828 14.2894 65.4753 14.3333 65.2726 14.3333C65.2205 14.3333 65.0637 14.3171 65.0443 14.3013C65.0275 14.2869 65.0007 14.1156 65.038 14.0809C65.0543 14.0657 65.3149 14.0763 65.5696 14.0669C65.7938 14.0585 66.015 14.0277 66.0646 14.0167C66.2655 13.9721 66.4018 13.8084 66.4673 13.5174C66.5329 13.2266 66.5691 12.5492 66.5813 11.8946C66.5988 10.9484 66.6146 9.58293 66.6194 7.79956C66.6243 6.01619 66.6321 4.77052 66.6423 4.0632C65.8721 5.0512 64.5207 6.83092 62.4487 9.45148C60.3767 12.0721 59.2035 13.5387 58.9299 13.8507C58.6664 14.1419 58.4788 14.2875 58.3674 14.2875C58.2864 14.2875 58.2332 14.2381 58.2079 14.1392C58.1826 14.0404 58.1698 13.8403 58.1698 13.5387V4.45932C58.1698 3.89776 58.1446 3.48438 58.0939 3.21921C58.0431 2.95401 57.9774 2.78228 57.8962 2.70436C57.8152 2.62644 57.6837 2.57028 57.5009 2.54046C57.4304 2.52895 57.1007 2.50108 56.9892 2.49078C56.878 2.48049 56.8068 2.47737 56.7765 2.47526C56.7334 2.47202 56.6962 2.46866 56.6722 2.45261C56.6447 2.43446 56.6714 2.2725 56.7033 2.26014C56.7942 2.22561 57.9251 2.29376 58.071 2.29883C58.5116 2.31435 58.7627 2.32218 58.8235 2.32218C58.9958 2.32218 59.2594 2.31435 59.6138 2.29883C59.9685 2.28331 60.6857 2.25734 60.8173 2.25734C60.8863 2.25734 61.0088 2.25896 61.0494 2.27059C61.066 2.27512 61.0881 2.43619 61.0711 2.4458C61.0412 2.46306 60.9307 2.47108 60.8782 2.47578C60.6757 2.49446 60.0692 2.52721 60.0091 2.54046C59.7857 2.58965 59.6393 2.70959 59.5682 2.89161C59.4973 3.07362 59.4568 3.487 59.4466 4.13172Z" fill="#2A3541"/>
<path fill-rule="evenodd" clip-rule="evenodd" d="M135.198 14.0685C135.248 14.0685 135.274 14.1068 135.274 14.1836C135.274 14.2604 135.248 14.2989 135.198 14.2989C134.957 14.2989 134.583 14.2861 134.076 14.2604C133.569 14.2349 133.201 14.2221 132.973 14.2221C132.694 14.2221 132.339 14.2349 131.908 14.2604C131.502 14.2861 131.192 14.2989 130.976 14.2989C130.926 14.2989 130.9 14.2604 130.9 14.1836C130.9 14.1068 130.926 14.0685 130.976 14.0685C131.445 14.0685 131.788 14.0237 132.003 13.9341C132.219 13.8444 132.326 13.6909 132.326 13.4733C132.326 13.2941 132.253 13.0143 132.079 12.6477L130.41 9.12876L125.809 9.12839L124.663 11.8605C124.482 12.2929 124.397 12.654 124.397 12.9357C124.397 13.6909 125.018 14.0685 126.26 14.0685C126.324 14.0685 126.355 14.1068 126.355 14.1836C126.355 14.2604 126.324 14.2989 126.26 14.2989C126.032 14.2989 125.703 14.2861 125.272 14.2604C124.79 14.2349 124.371 14.2221 124.017 14.2221C123.687 14.2221 123.307 14.2349 122.876 14.2604C122.495 14.2861 122.178 14.2989 121.925 14.2989C121.861 14.2989 121.83 14.2604 121.83 14.1836C121.83 14.1068 121.861 14.0685 121.925 14.0685C122.28 14.0685 122.581 14.0014 122.828 13.8669C123.075 13.7325 123.31 13.4956 123.532 13.1565C123.753 12.8173 123.997 12.3277 124.264 11.6877L128.276 2.12607C128.301 2.08778 128.346 2.06862 128.409 2.06862C128.472 2.06862 128.511 2.08778 128.523 2.12607L133.011 11.6686C133.442 12.6158 133.81 13.2524 134.114 13.5789C134.418 13.9053 134.779 14.0685 135.198 14.0685ZM125.98 8.72509L130.22 8.72546L127.991 3.89251L125.98 8.72509Z" fill="#2A3541"/>
<path fill-rule="evenodd" clip-rule="evenodd" d="M50.4571 21.9501C50.4406 21.905 50.3974 21.8542 50.3598 21.9518L49.6638 23.7509C49.6066 23.8991 49.5954 24.019 49.6187 24.0869C49.6506 24.1795 49.8067 24.1816 49.9092 24.1816H49.9644C49.9846 24.1816 49.9668 24.2748 49.94 24.2764C49.9029 24.2788 49.6516 24.2735 49.5544 24.2693C49.457 24.265 49.4015 24.2622 49.3892 24.2622C49.386 24.2622 49.3317 24.2646 49.2263 24.2693C49.1208 24.2741 48.946 24.2815 48.8686 24.2798C48.8538 24.2795 48.8507 24.1793 48.8507 24.1793C48.8879 24.1793 48.9584 24.1757 48.9757 24.1744C49.1241 24.1622 49.2414 24.0618 49.3375 23.8276L50.4087 21.214C50.4204 21.1857 50.5051 21.0514 50.5424 21.0514C50.7079 21.0514 51.5313 23.3216 51.9311 24.0101C52.0402 24.1979 52.2332 24.1793 52.3937 24.1793C52.3937 24.1793 52.3921 24.2808 52.362 24.2819C52.3178 24.2835 51.9873 24.2755 51.6561 24.2755C51.297 24.2753 50.9361 24.2817 50.9315 24.2697C50.9295 24.2642 50.9206 24.1817 50.9251 24.1793C50.9359 24.1739 51.2746 24.1983 51.2829 24.1169C51.3021 23.9333 51.108 23.5335 50.9519 23.1809C50.6954 22.602 50.502 22.073 50.4571 21.9501Z" fill="#939393"/>
<path fill-rule="evenodd" clip-rule="evenodd" d="M48.78 24.1777C48.7903 24.1777 48.7955 24.1936 48.7955 24.2254C48.7955 24.2572 48.7903 24.2732 48.78 24.2732H47.8023C47.7298 24.2732 47.6665 24.2533 47.6122 24.2136C47.5578 24.1737 47.4685 24.069 47.3444 23.8993C47.2202 23.7296 46.9979 23.4087 46.6772 22.9367C46.4236 22.5654 46.24 22.3081 46.1261 22.1651C46.0124 22.0218 45.8959 21.9197 45.7769 21.8587C45.6579 21.7977 45.4976 21.7672 45.2958 21.7672C45.2494 21.7672 45.2156 21.77 45.195 21.7752V23.6288C45.195 23.7879 45.2119 23.9059 45.2454 23.9829C45.2791 24.0597 45.3411 24.1115 45.4316 24.138C45.5222 24.1644 45.6684 24.1777 45.8702 24.1777C45.8804 24.1777 45.8856 24.1936 45.8856 24.2254C45.8856 24.2572 45.8804 24.2732 45.8702 24.2732C45.7097 24.2732 45.5831 24.2704 45.4899 24.2653L44.9312 24.2572L44.4035 24.2653C44.3105 24.2705 44.181 24.2732 44.0156 24.2732C44.0053 24.2732 44 24.2572 44 24.2254C44 24.1936 44.0053 24.1777 44.0156 24.1777C44.2122 24.1777 44.357 24.1644 44.4502 24.138C44.5432 24.1115 44.6066 24.0597 44.6401 23.9829C44.6739 23.9059 44.6906 23.7879 44.6906 23.6288V19.9454C44.6906 19.7863 44.675 19.6696 44.6441 19.5954C44.613 19.5211 44.5509 19.4694 44.4579 19.4402C44.3647 19.411 44.2199 19.3964 44.0233 19.3964C44.013 19.3964 44.0079 19.3806 44.0079 19.3488C44.0079 19.317 44.013 19.301 44.0233 19.301L44.4035 19.309C44.6208 19.3196 44.7966 19.3249 44.9312 19.3249C45.0813 19.3249 45.27 19.3196 45.4976 19.309L45.8702 19.301C45.8804 19.301 45.8856 19.317 45.8856 19.3488C45.8856 19.3806 45.8804 19.3964 45.8702 19.3964C45.6735 19.3964 45.5287 19.4124 45.4356 19.4442C45.3425 19.4761 45.2791 19.5304 45.2454 19.6074C45.2119 19.6842 45.195 19.8023 45.195 19.9613V21.6399C45.4743 21.6294 45.6477 21.6241 45.7149 21.6241H45.8623L46.8013 20.2795C47.034 19.9508 47.1504 19.7227 47.1504 19.5954C47.1504 19.5265 47.1181 19.4761 47.0535 19.4442C46.9888 19.4124 46.8892 19.3964 46.7546 19.3964C46.7443 19.3964 46.7392 19.3806 46.7392 19.3488C46.7392 19.317 46.7443 19.301 46.7546 19.301L47.0884 19.309C47.2849 19.3196 47.4685 19.3249 47.6392 19.3249C47.8152 19.3249 47.9962 19.3196 48.1825 19.309L48.4618 19.301C48.4774 19.301 48.4851 19.317 48.4851 19.3488C48.4851 19.3806 48.4774 19.3964 48.4618 19.3964C48.1928 19.3964 47.9549 19.4641 47.748 19.5994C47.541 19.7346 47.3186 19.964 47.0806 20.2875L46.0408 21.6479C46.1649 21.6691 46.2723 21.7116 46.3629 21.7752C46.4534 21.8388 46.5451 21.9276 46.6383 22.0417C46.7314 22.1558 46.8685 22.3454 47.0495 22.6105L47.1659 22.7776C47.4091 23.1276 47.6057 23.3954 47.7557 23.581C47.9056 23.7667 48.0636 23.9113 48.2291 24.0147C48.3946 24.118 48.5782 24.1725 48.78 24.1777Z" fill="#939393"/>
<path fill-rule="evenodd" clip-rule="evenodd" d="M71.3879 21.0985C71.4201 21.0985 71.4389 21.1026 71.4442 21.1108C71.4495 21.119 71.4523 21.1396 71.4523 21.1725C71.4523 21.2819 71.4495 21.3791 71.4442 21.4638C71.4389 21.5487 71.4335 21.6213 71.4281 21.6815L71.412 22.166C71.412 22.1769 71.3972 22.1824 71.3677 22.1824C71.3382 22.1824 71.3208 22.1769 71.3153 22.166C71.2939 21.8157 71.2215 21.5693 71.098 21.427C70.9746 21.2847 70.7787 21.2134 70.5104 21.2134C70.3493 21.2134 70.2299 21.2299 70.1521 21.2628C70.0743 21.2956 70.0206 21.3516 69.991 21.4311C69.9616 21.5105 69.9468 21.6267 69.9468 21.7801V23.603C69.9468 23.7673 69.9589 23.889 69.983 23.9685C70.0072 24.0479 70.0556 24.1011 70.1279 24.1286C70.2005 24.1559 70.3119 24.1696 70.462 24.1696C70.4728 24.1696 70.4782 24.186 70.4782 24.2189C70.4782 24.2518 70.4728 24.2682 70.462 24.2682C70.3226 24.2682 70.2124 24.2653 70.132 24.26L69.7296 24.2518L69.3027 24.26C69.2276 24.2654 69.1204 24.2682 68.9808 24.2682C68.9646 24.2682 68.9565 24.2518 68.9565 24.2189C68.9565 24.186 68.9646 24.1696 68.9808 24.1696C69.1311 24.1696 69.2424 24.1559 69.3149 24.1286C69.3874 24.1011 69.4356 24.0479 69.4598 23.9685C69.484 23.889 69.496 23.7673 69.496 23.603V21.7636C69.496 21.5994 69.484 21.4776 69.4598 21.3983C69.4356 21.3188 69.3886 21.2655 69.3189 21.238C69.2491 21.2107 69.1391 21.197 68.9887 21.197C68.9727 21.197 68.9646 21.1806 68.9646 21.1478C68.9646 21.1149 68.9727 21.0985 68.9887 21.0985H71.3879ZM77.8121 22.5191C78.1127 22.5465 78.3354 22.6218 78.4803 22.7449C78.6252 22.8681 78.6976 23.0419 78.6976 23.2664C78.6976 23.562 78.585 23.8056 78.3596 23.9972C78.1342 24.1888 77.847 24.2846 77.4981 24.2846C77.4176 24.2846 77.2647 24.2791 77.0392 24.2682C76.7816 24.2573 76.5992 24.2518 76.492 24.2518L76.0651 24.26C75.9901 24.2654 75.8827 24.2682 75.7432 24.2682C75.7271 24.2682 75.719 24.2518 75.719 24.2189C75.719 24.186 75.7271 24.1696 75.7432 24.1696C75.8934 24.1696 76.0047 24.1559 76.0773 24.1286C76.1497 24.1011 76.198 24.0479 76.2222 23.9685C76.2464 23.889 76.2583 23.7673 76.2583 23.603V21.7636C76.2583 21.5994 76.2464 21.4776 76.2222 21.3983C76.198 21.3188 76.151 21.2655 76.0812 21.238C76.0116 21.2107 75.9016 21.197 75.7512 21.197C75.735 21.197 75.7271 21.1806 75.7271 21.1478C75.7271 21.1149 75.735 21.0985 75.7512 21.0985L76.492 21.1068L76.9105 21.0985C77.1252 21.0876 77.2835 21.0821 77.3854 21.0821C77.7021 21.0821 77.9436 21.1341 78.1099 21.238C78.2763 21.3421 78.3596 21.4981 78.3596 21.7061C78.3596 21.8485 78.3153 21.9853 78.2267 22.1167C78.1382 22.2481 77.9999 22.3823 77.8121 22.5191ZM77.1761 21.197C77.0473 21.197 76.9507 21.2107 76.8864 21.238C76.8219 21.2655 76.7764 21.3202 76.7494 21.4023C76.7227 21.4844 76.7092 21.6103 76.7092 21.7801V22.5109H77.5465H77.635C77.7799 22.3631 77.8524 22.1579 77.8524 21.895C77.8524 21.6542 77.796 21.4776 77.6833 21.3654C77.5706 21.2532 77.4016 21.197 77.1761 21.197ZM77.3532 24.1532C77.9007 24.1532 78.1743 23.9206 78.1743 23.4552C78.1743 23.2034 78.1006 23.0049 77.9529 22.8598C77.8055 22.7148 77.5759 22.6423 77.2647 22.6423H76.7092V23.603C76.7092 23.8056 76.7521 23.9479 76.838 24.0301C76.9239 24.1122 77.0956 24.1532 77.3532 24.1532ZM82.3446 23.8247C82.3661 23.8247 82.3795 23.8371 82.3848 23.8617C82.3902 23.8864 82.382 23.9042 82.3606 23.9151L81.5314 24.3174C81.51 24.3283 81.4885 24.3339 81.4671 24.3339C81.3973 24.3339 81.3356 24.2873 81.2818 24.1943C81.2282 24.1012 81.1933 23.9725 81.1773 23.8083L80.6781 24.0794C80.5118 24.1669 80.3748 24.2298 80.2674 24.2682C80.1602 24.3066 80.0555 24.3256 79.9536 24.3256C79.7873 24.3256 79.6597 24.2805 79.5711 24.1902C79.4826 24.0998 79.4384 23.9862 79.4384 23.8494C79.4384 23.7016 79.4933 23.5825 79.6033 23.4922C79.7133 23.4019 79.9106 23.3074 80.1951 23.2089L81.1691 22.8557V22.1743C81.1691 21.8129 81.1236 21.5598 81.0323 21.4147C80.9411 21.2696 80.815 21.197 80.654 21.197C80.4714 21.197 80.3292 21.2628 80.2273 21.3941C80.1253 21.5255 80.0636 21.6843 80.0421 21.8704C80.0207 22.0784 79.9214 22.1824 79.7442 22.1824C79.6584 22.1824 79.5913 22.1605 79.543 22.1167C79.4947 22.0729 79.4706 22.0128 79.4706 21.936C79.4706 21.8102 79.551 21.676 79.712 21.5337C79.873 21.3914 80.0676 21.2709 80.2957 21.1725C80.5237 21.0739 80.7291 21.0246 80.9117 21.0246C81.1262 21.0246 81.298 21.0999 81.4268 21.2504C81.5557 21.4009 81.62 21.6267 81.62 21.9279V23.3814C81.62 23.5729 81.6441 23.7125 81.6924 23.8001C81.7407 23.8878 81.8212 23.9315 81.934 23.9315C82.036 23.9315 82.1674 23.8959 82.3284 23.8247H82.3446ZM81.1691 23.6934V23.6441V22.9543L80.34 23.2745C80.2165 23.3238 80.1294 23.3786 80.0783 23.4388C80.0273 23.4991 80.0018 23.5757 80.0018 23.6687C80.0018 23.7837 80.034 23.8726 80.0985 23.9357C80.1629 23.9986 80.2461 24.0301 80.348 24.0301C80.45 24.0301 80.56 24.0026 80.6781 23.9479L81.1691 23.6934ZM85.5084 24.1696C85.5192 24.1696 85.5244 24.186 85.5244 24.2189C85.5244 24.2518 85.5192 24.2682 85.5084 24.2682C85.3849 24.2682 85.2884 24.2653 85.2186 24.26L84.8081 24.2518L84.3814 24.26C84.3062 24.2654 84.2015 24.2682 84.0673 24.2682C84.0566 24.2682 84.0512 24.2518 84.0512 24.2189C84.0512 24.186 84.0566 24.1696 84.0673 24.1696C84.2122 24.1696 84.3182 24.1559 84.3853 24.1286C84.4525 24.1011 84.4981 24.0492 84.5222 23.9725C84.5463 23.8959 84.5584 23.7728 84.5584 23.603V22.708C84.3598 22.7189 84.1855 22.7888 84.0351 22.9174C83.8849 23.046 83.7239 23.2745 83.5521 23.603C83.3911 23.8987 83.2851 24.0834 83.2341 24.1573C83.1832 24.2312 83.1307 24.2682 83.0771 24.2682H82.3767C82.3661 24.2682 82.3606 24.2518 82.3606 24.2189C82.3606 24.186 82.3661 24.1696 82.3767 24.1696C82.5378 24.1696 82.668 24.1162 82.7672 24.0095C82.8665 23.9028 82.947 23.7892 83.0086 23.6687C83.0704 23.5483 83.1121 23.4716 83.1334 23.4388C83.2355 23.2527 83.3603 23.0953 83.5078 22.9667C83.6553 22.8379 83.8178 22.7546 83.9949 22.7162C83.3455 22.6669 83.0207 22.4041 83.0207 21.9279C83.0207 21.6651 83.116 21.4571 83.3066 21.3038C83.497 21.1505 83.7507 21.0739 84.0673 21.0739C84.1264 21.0739 84.2418 21.0793 84.4135 21.0904C84.5584 21.1068 84.6899 21.1149 84.8081 21.1149L85.2106 21.1068C85.2803 21.1012 85.377 21.0985 85.5004 21.0985C85.5111 21.0985 85.5164 21.1149 85.5164 21.1478C85.5164 21.1806 85.5111 21.197 85.5004 21.197C85.3608 21.197 85.2574 21.2121 85.1903 21.2422C85.1233 21.2723 85.0764 21.3257 85.0495 21.4023C85.0226 21.479 85.0093 21.5994 85.0093 21.7636V23.603C85.0093 23.7618 85.024 23.8808 85.0536 23.9602C85.083 24.0396 85.1314 24.0944 85.1985 24.1245C85.2656 24.1546 85.3688 24.1696 85.5084 24.1696ZM83.5039 21.7389C83.5039 21.9963 83.5682 22.2057 83.697 22.3672C83.8259 22.5287 84.0083 22.6095 84.2444 22.6095C84.3465 22.6095 84.4511 22.6012 84.5584 22.5848V21.7801C84.5584 21.6049 84.5449 21.4763 84.5182 21.3941C84.4914 21.312 84.443 21.2545 84.3733 21.2216C84.3034 21.1888 84.1988 21.1725 84.0593 21.1725C83.8768 21.1725 83.7386 21.2216 83.6447 21.3202C83.5508 21.4187 83.5039 21.5584 83.5039 21.7389Z" fill="#939393"/>
<path fill-rule="evenodd" clip-rule="evenodd" d="M91.2081 24.1963C91.2185 24.1965 91.2242 24.2124 91.2242 24.244C91.2242 24.2756 91.2185 24.2915 91.2081 24.2915H90.3095C90.2719 24.2915 90.2459 24.2821 90.2325 24.2638C90.2191 24.2453 90.1758 24.1724 90.1031 24.0458C90.0303 23.9191 89.9342 23.6272 89.8028 23.412C89.6699 23.1943 89.556 23.0344 89.467 22.9287C89.3778 22.8231 89.2861 22.7504 89.1918 22.7108C89.0973 22.6713 88.9772 22.6515 88.8315 22.6515H88.702V23.5308C88.702 23.6891 88.7107 23.9256 88.7351 24.0022C88.7593 24.0787 88.8064 24.1303 88.8766 24.1568C88.9467 24.1832 89.0574 24.1963 89.2085 24.1963C89.2193 24.1963 89.2248 24.2124 89.2248 24.244C89.2248 24.2756 89.2193 24.2915 89.2085 24.2915C89.0736 24.2915 88.9657 24.2852 88.8846 24.2836L88.4799 24.2757L88.0427 24.2836C87.9672 24.2848 87.8621 24.2915 87.727 24.2915C87.7109 24.2915 87.7028 24.2756 87.7028 24.244C87.7028 24.2124 87.7109 24.1963 87.727 24.1963C87.8783 24.1963 87.989 24.183 88.0589 24.1568C88.1289 24.1303 88.1764 24.0801 88.2006 24.0062C88.2248 23.9323 88.2406 23.6945 88.2406 23.5308V21.7561C88.2406 21.5924 88.2283 21.4736 88.2041 21.3997C88.1799 21.3257 88.1341 21.2755 88.0666 21.2491C87.999 21.2227 87.8898 21.2095 87.7387 21.2095C87.7225 21.2095 87.7143 21.1937 87.7143 21.1618C87.7143 21.1302 87.7225 21.1144 87.7387 21.1144C87.8682 21.1144 87.9707 21.1172 88.0462 21.1223L88.4834 21.1302L88.953 21.1223C89.0393 21.1171 89.1552 21.1144 89.3011 21.1144C89.3173 21.1144 89.3252 21.1302 89.3252 21.1618C89.3252 21.1937 89.3173 21.2095 89.3011 21.2095C89.1282 21.2095 89.0001 21.2239 88.9166 21.253C88.8327 21.282 88.7762 21.3362 88.7466 21.4155C88.7168 21.4946 88.702 21.6135 88.702 21.772V22.5247C88.7667 22.5247 88.8477 22.5193 88.9448 22.5089L89.2038 22.5009C89.3389 22.5009 89.4737 22.3741 89.6086 22.1205C89.6248 22.0889 89.6398 22.0612 89.6532 22.0374C89.6667 22.0137 89.6789 21.9912 89.6895 21.97C89.8732 21.6214 90.0202 21.3798 90.1307 21.2452C90.2414 21.1104 90.3831 21.0431 90.5559 21.0431C90.6746 21.0431 90.7664 21.0694 90.8309 21.1223C90.8958 21.1752 90.9282 21.2412 90.9282 21.3203C90.9282 21.4048 90.8984 21.4763 90.8391 21.5343C90.7798 21.5924 90.7014 21.6214 90.6043 21.6214C90.5449 21.6214 90.4828 21.6029 90.4183 21.566C90.3533 21.5289 90.302 21.5106 90.2644 21.5106C90.1563 21.5106 89.9783 21.7272 89.7301 22.1603C89.6438 22.3187 89.5602 22.4375 89.4791 22.5167C89.6357 22.5378 89.7638 22.5973 89.8636 22.695C89.9635 22.7927 90.0997 22.9789 90.2724 23.2535L90.3859 23.4357C90.4919 23.6058 90.5766 23.8492 90.6414 23.931C90.7061 24.0129 90.7816 24.0764 90.868 24.1212C90.9543 24.166 91.0678 24.1916 91.2081 24.1963ZM92.9358 24.2757C92.6227 24.2757 92.3461 24.2003 92.1059 24.0498C91.866 23.8992 91.6811 23.696 91.5514 23.4396C91.422 23.1835 91.3572 22.9049 91.3572 22.6038C91.3572 22.2606 91.4422 21.9687 91.6122 21.7284C91.7822 21.4881 92.0008 21.3085 92.2678 21.1897C92.5351 21.0708 92.8063 21.0113 93.0815 21.0113C93.4 21.0113 93.6777 21.0879 93.9153 21.2412C94.1527 21.3942 94.3347 21.5964 94.4618 21.8473C94.5885 22.0982 94.652 22.3635 94.652 22.6436C94.652 22.9709 94.5737 23.2575 94.4171 23.5031C94.2608 23.7487 94.0516 23.939 93.7896 24.0735C93.5281 24.2082 93.2433 24.2757 92.9358 24.2757ZM93.1706 24.1251C93.4673 24.1251 93.6967 24.022 93.8586 23.8161C94.0206 23.6102 94.1014 23.2932 94.1014 22.8653C94.1014 22.5378 94.046 22.2446 93.9355 21.9858C93.8248 21.7272 93.6725 21.525 93.4783 21.3798C93.2837 21.2345 93.0625 21.1618 92.8145 21.1618C92.523 21.1618 92.2976 21.2649 92.1383 21.4709C91.9792 21.677 91.8995 21.9727 91.8995 22.3583C91.8995 22.6805 91.9537 22.9763 92.0616 23.2456C92.1693 23.515 92.3206 23.7289 92.5149 23.8873C92.7092 24.0458 92.9276 24.1251 93.1706 24.1251Z" fill="#939393"/>
<path fill-rule="evenodd" clip-rule="evenodd" d="M103.244 24.1681C103.255 24.1681 103.26 24.1843 103.26 24.2168C103.26 24.2493 103.255 24.2655 103.244 24.2655C103.107 24.2655 102.999 24.259 102.92 24.2574L102.524 24.2493L102.105 24.2574C102.031 24.2586 101.931 24.2655 101.805 24.2655C101.789 24.2655 101.781 24.2493 101.781 24.2168C101.781 24.1843 101.789 24.1681 101.805 24.1681C101.947 24.1681 102.053 24.1545 102.121 24.1275C102.19 24.1006 102.236 24.0475 102.259 23.9693C102.283 23.891 102.295 23.7161 102.295 23.5539V21.7367C102.295 21.5527 102.29 21.4311 102.279 21.3716C102.269 21.3122 102.24 21.2742 102.192 21.258C102.145 21.2418 102.052 21.2336 101.915 21.2336H100.998C100.856 21.2336 100.761 21.2418 100.713 21.258C100.666 21.2742 100.637 21.3134 100.626 21.3756C100.616 21.4378 100.61 21.5636 100.61 21.7529V23.5539C100.61 23.716 100.622 23.891 100.646 23.9693C100.67 24.0475 100.715 24.1004 100.781 24.1275C100.846 24.1544 100.95 24.1681 101.093 24.1681C101.103 24.1681 101.109 24.1843 101.109 24.2168C101.109 24.2493 101.103 24.2655 101.093 24.2655C100.961 24.2655 100.858 24.259 100.784 24.2574L100.397 24.2493L99.9778 24.2574C99.904 24.2586 99.7983 24.2655 99.6613 24.2655C99.6455 24.2655 99.6377 24.2493 99.6377 24.2168C99.6377 24.1843 99.6455 24.1681 99.6613 24.1681C99.8089 24.1681 99.9184 24.1545 99.9896 24.1275C100.061 24.1004 100.108 24.0475 100.132 23.9693C100.156 23.891 100.168 23.7161 100.168 23.5539V21.7367C100.168 21.5743 100.156 21.4541 100.132 21.3756C100.108 21.2972 100.062 21.2445 99.9936 21.2174C99.925 21.1903 99.8169 21.1768 99.6692 21.1768C99.6535 21.1768 99.6455 21.1606 99.6455 21.1281C99.6455 21.0958 99.6535 21.0795 99.6692 21.0795H103.244C103.255 21.0795 103.26 21.0958 103.26 21.1281C103.26 21.1606 103.255 21.1768 103.244 21.1768C103.096 21.1768 102.987 21.1932 102.916 21.2255C102.845 21.258 102.797 21.3134 102.773 21.3919C102.75 21.4703 102.738 21.5907 102.738 21.7529V23.5539C102.738 23.716 102.75 23.8912 102.773 23.9693C102.797 24.0477 102.845 24.1006 102.916 24.1275C102.987 24.1545 103.096 24.1681 103.244 24.1681ZM106.771 23.7729C106.792 23.7729 106.806 23.785 106.811 23.8094C106.816 23.8337 106.808 23.8513 106.787 23.8622L105.973 24.2597C105.951 24.2706 105.93 24.2758 105.909 24.2758C105.841 24.2758 105.78 24.2299 105.727 24.138C105.675 24.0459 105.64 23.9189 105.625 23.7567L105.134 24.0244C104.971 24.111 104.836 24.1732 104.731 24.211C104.625 24.2488 104.523 24.2677 104.422 24.2677C104.259 24.2677 104.134 24.2231 104.047 24.1338C103.96 24.0447 103.916 23.9325 103.916 23.7973C103.916 23.6513 103.97 23.5335 104.078 23.4443C104.186 23.3552 104.38 23.2618 104.66 23.1645L105.617 22.8157V22.1423C105.617 21.7854 105.572 21.5351 105.482 21.3919C105.392 21.2485 105.269 21.1768 105.11 21.1768C104.931 21.1768 104.791 21.2419 104.691 21.3716C104.591 21.5014 104.53 21.6581 104.509 21.8421C104.488 22.0476 104.391 22.1504 104.217 22.1504C104.133 22.1504 104.067 22.1287 104.019 22.0855C103.972 22.0423 103.948 21.9827 103.948 21.907C103.948 21.7826 104.027 21.6501 104.185 21.5095C104.343 21.3689 104.534 21.2499 104.758 21.1526C104.983 21.0552 105.184 21.0065 105.364 21.0065C105.574 21.0065 105.743 21.0809 105.87 21.2295C105.996 21.3784 106.06 21.6014 106.06 21.8989V23.3348C106.06 23.5241 106.083 23.662 106.131 23.7486C106.178 23.8351 106.257 23.8783 106.368 23.8783C106.468 23.8783 106.597 23.8432 106.756 23.7729H106.771ZM105.617 23.643V23.5943V22.913L104.802 23.2294C104.681 23.278 104.595 23.3321 104.545 23.3916C104.495 23.4511 104.47 23.5269 104.47 23.6188C104.47 23.7323 104.501 23.8201 104.565 23.8824C104.628 23.9446 104.71 23.9757 104.81 23.9757C104.91 23.9757 105.018 23.9486 105.134 23.8947L105.617 23.643ZM110.639 24.1948C110.649 24.1948 110.654 24.211 110.654 24.2435C110.654 24.276 110.649 24.2921 110.639 24.2921C110.502 24.2921 110.394 24.2857 110.314 24.2841L109.919 24.276L109.492 24.2841C109.418 24.2853 109.315 24.2921 109.183 24.2921C109.168 24.2921 109.16 24.276 109.16 24.2435C109.16 24.211 109.168 24.1948 109.183 24.1948C109.331 24.1948 109.439 24.1813 109.508 24.1542C109.576 24.1272 109.624 24.0744 109.65 23.9961C109.676 23.9177 109.69 23.7161 109.69 23.5539V22.7264H108.005V23.5539C108.005 23.716 108.017 23.9177 108.041 23.9961C108.064 24.0743 108.112 24.1272 108.183 24.1542C108.254 24.1811 108.363 24.1948 108.511 24.1948C108.522 24.1948 108.527 24.211 108.527 24.2435C108.527 24.276 108.522 24.2921 108.511 24.2921C108.374 24.2921 108.266 24.2857 108.187 24.2841L107.792 24.276L107.372 24.2841C107.299 24.2853 107.193 24.2921 107.056 24.2921C107.04 24.2921 107.032 24.276 107.032 24.2435C107.032 24.211 107.04 24.1948 107.056 24.1948C107.204 24.1948 107.313 24.1811 107.384 24.1542C107.455 24.1272 107.503 24.0743 107.527 23.9961C107.55 23.9177 107.562 23.7161 107.562 23.5539V21.7367C107.562 21.5743 107.55 21.4541 107.527 21.3756C107.503 21.2972 107.457 21.2445 107.388 21.2174C107.32 21.1903 107.212 21.1768 107.064 21.1768C107.048 21.1768 107.04 21.1606 107.04 21.1281C107.04 21.0958 107.048 21.0795 107.064 21.0795C107.196 21.0795 107.299 21.0823 107.372 21.0875L107.792 21.0958L108.195 21.0875C108.274 21.0823 108.379 21.0795 108.511 21.0795C108.522 21.0795 108.527 21.0958 108.527 21.1281C108.527 21.1606 108.522 21.1768 108.511 21.1768C108.363 21.1768 108.254 21.1932 108.183 21.2255C108.112 21.258 108.064 21.3134 108.041 21.3919C108.017 21.4703 108.005 21.5907 108.005 21.7529V22.5642H109.69V21.7367C109.69 21.5743 109.678 21.4541 109.654 21.3756C109.63 21.2972 109.584 21.2445 109.516 21.2174C109.447 21.1903 109.339 21.1768 109.191 21.1768C109.176 21.1768 109.168 21.1606 109.168 21.1281C109.168 21.0958 109.176 21.0795 109.191 21.0795C109.323 21.0795 109.426 21.0823 109.5 21.0875L109.919 21.0958L110.322 21.0875C110.401 21.0823 110.507 21.0795 110.639 21.0795C110.649 21.0795 110.654 21.0958 110.654 21.1281C110.654 21.1606 110.649 21.1768 110.639 21.1768C110.491 21.1768 110.382 21.1932 110.31 21.2255C110.239 21.258 110.192 21.3134 110.168 21.3919C110.144 21.4703 110.132 21.5907 110.132 21.7529V23.5539C110.132 23.716 110.144 23.9179 110.168 23.9961C110.192 24.0744 110.239 24.1273 110.31 24.1542C110.382 24.1813 110.491 24.1948 110.639 24.1948Z" fill="#939393"/>
<path fill-rule="evenodd" clip-rule="evenodd" d="M117.957 24.1775C117.968 24.1775 117.973 24.194 117.973 24.2267C117.973 24.2595 117.968 24.276 117.957 24.276C117.835 24.276 117.74 24.2731 117.671 24.2678L117.265 24.2595L116.843 24.2678C116.769 24.2732 116.665 24.276 116.532 24.276C116.522 24.276 116.517 24.2595 116.517 24.2267C116.517 24.194 116.522 24.1775 116.532 24.1775C116.676 24.1775 116.781 24.1639 116.847 24.1365C116.913 24.1092 116.958 24.0572 116.982 23.9807C117.006 23.904 117.018 23.7809 117.018 23.6114V22.7171C116.822 22.7281 116.649 22.7979 116.501 22.9264C116.352 23.0549 116.193 23.2832 116.023 23.6114C115.864 23.9068 115.759 24.0914 115.709 24.1652C115.658 24.2391 115.607 24.276 115.553 24.276H114.861C114.85 24.276 114.845 24.2595 114.845 24.2267C114.845 24.194 114.85 24.1775 114.861 24.1775C115.02 24.1775 115.149 24.1242 115.247 24.0175C115.345 23.9108 115.425 23.7973 115.486 23.6771C115.547 23.5567 115.588 23.4801 115.609 23.4474C115.71 23.2613 115.833 23.1041 115.979 22.9755C116.125 22.847 116.286 22.7636 116.461 22.7254C115.819 22.6761 115.498 22.4135 115.498 21.9376C115.498 21.6752 115.592 21.4673 115.78 21.3142C115.969 21.161 116.219 21.0845 116.532 21.0845C116.591 21.0845 116.705 21.0898 116.875 21.1009C117.018 21.1172 117.148 21.1255 117.265 21.1255L117.663 21.1172C117.732 21.1118 117.827 21.109 117.949 21.109C117.96 21.109 117.965 21.1255 117.965 21.1583C117.965 21.1911 117.96 21.2075 117.949 21.2075C117.811 21.2075 117.709 21.2225 117.643 21.2526C117.577 21.2827 117.53 21.336 117.504 21.4126C117.477 21.4892 117.464 21.6095 117.464 21.7736V23.6114C117.464 23.77 117.478 23.889 117.507 23.9683C117.537 24.0476 117.584 24.1023 117.651 24.1324C117.717 24.1625 117.819 24.1775 117.957 24.1775ZM115.975 21.749C115.975 22.0061 116.039 22.2153 116.166 22.3767C116.294 22.538 116.474 22.6187 116.708 22.6187C116.808 22.6187 116.912 22.6105 117.018 22.5941V21.79C117.018 21.615 117.005 21.4864 116.978 21.4044C116.952 21.3223 116.904 21.2649 116.835 21.2321C116.766 21.1993 116.662 21.1829 116.525 21.1829C116.344 21.1829 116.207 21.2321 116.115 21.3306C116.022 21.429 115.975 21.5685 115.975 21.749Z" fill="#939393"/>
<path fill-rule="evenodd" clip-rule="evenodd" d="M112.038 21.6307L112.05 23.6423C113.258 22.1729 113.726 21.4456 113.812 21.3428C113.857 21.289 114.08 20.997 114.186 21.0917C114.218 21.1204 114.219 21.193 114.22 21.2097C114.225 21.2636 114.227 21.3456 114.227 21.454C114.233 22.4189 114.239 23.1698 114.246 23.7063C114.248 23.8689 114.247 24.039 114.269 24.0965C114.29 24.1538 114.347 24.1644 114.414 24.1753C114.439 24.1794 114.537 24.1778 114.606 24.1818C114.622 24.1826 114.61 24.276 114.596 24.276C114.556 24.276 114.399 24.2807 114.234 24.276C114.068 24.2716 113.901 24.2728 113.886 24.2728C113.855 24.2728 113.797 24.2752 113.711 24.2801C113.626 24.2848 113.478 24.2853 113.425 24.2853C113.381 24.2853 113.387 24.2821 113.384 24.2783C113.38 24.271 113.38 24.2 113.391 24.1986C113.487 24.1844 113.69 24.2203 113.73 24.0692C113.75 23.9922 113.771 23.8058 113.775 23.6335C113.78 23.3939 113.785 23.0481 113.786 22.5961C113.788 22.144 113.79 21.8285 113.793 21.6497C113.77 21.6787 112.281 23.8136 111.775 24.2228C111.689 24.2928 111.615 24.2889 111.6 24.24C111.593 24.2165 111.588 24.1656 111.588 24.0889C111.588 23.9517 111.589 23.7209 111.591 23.3966C111.592 23.0723 111.593 22.7681 111.593 22.4837C111.593 22.1994 111.591 21.9399 111.588 21.7076C111.586 21.497 111.577 21.2969 111.554 21.2431C111.532 21.1896 111.48 21.1781 111.406 21.1738C111.392 21.173 111.266 21.1766 111.235 21.175C111.204 21.1734 111.182 21.1709 111.17 21.1678C111.163 21.1662 111.152 21.0892 111.157 21.0858C111.171 21.0781 111.192 21.0791 111.219 21.0791C111.265 21.0791 111.452 21.0779 111.577 21.0824C111.703 21.0872 111.842 21.0895 111.858 21.0895C111.91 21.0895 111.985 21.0867 112.081 21.0824C112.177 21.0781 112.403 21.0767 112.441 21.0775C112.441 21.0775 112.443 21.1691 112.417 21.172C112.396 21.1744 112.207 21.1752 112.193 21.1774C112.138 21.1863 112.098 21.1919 112.076 21.2429C112.055 21.2938 112.037 21.4685 112.038 21.6307Z" fill="#939393"/>
<path fill-rule="evenodd" clip-rule="evenodd" d="M60.3748 24.1769C60.3854 24.1769 60.3905 24.1935 60.3905 24.2265C60.3905 24.2594 60.3854 24.276 60.3748 24.276C60.2378 24.276 60.1297 24.2731 60.0506 24.2677L59.6551 24.2594L59.2281 24.2677C59.1542 24.2732 59.0515 24.276 58.9197 24.276C58.9037 24.276 58.8959 24.2594 58.8959 24.2265C58.8959 24.1935 58.9037 24.1769 58.9197 24.1769C59.0672 24.1769 59.1754 24.1633 59.2439 24.1357C59.3123 24.1082 59.3599 24.0546 59.3863 23.9749C59.4126 23.8952 59.4258 23.7729 59.4258 23.6078V22.7666H57.7412V23.6078C57.7412 23.7729 57.7531 23.8952 57.7768 23.9749C57.8006 24.0546 57.8481 24.1082 57.9192 24.1357C57.9904 24.1633 58.0998 24.1769 58.2474 24.1769C58.2579 24.1769 58.2633 24.1935 58.2633 24.2265C58.2633 24.2594 58.2579 24.276 58.2474 24.276C58.1103 24.276 58.0022 24.2731 57.9232 24.2677L57.5276 24.2594L57.1085 24.2677C57.0347 24.2732 56.9294 24.276 56.7922 24.276C56.7764 24.276 56.7684 24.2594 56.7684 24.2265C56.7684 24.1935 56.7764 24.1769 56.7922 24.1769C56.9398 24.1769 57.0493 24.1633 57.1204 24.1357C57.1916 24.1082 57.239 24.0546 57.2628 23.9749C57.2864 23.8952 57.2984 23.7729 57.2984 23.6078V21.7603C57.2984 21.5954 57.2864 21.473 57.2628 21.3932C57.239 21.3135 57.1928 21.2599 57.1243 21.2324C57.0558 21.205 56.9477 21.1912 56.8001 21.1912C56.7843 21.1912 56.7764 21.1746 56.7764 21.1416C56.7764 21.1087 56.7843 21.0921 56.8001 21.0921C56.932 21.0921 57.0347 21.095 57.1085 21.1004L57.5276 21.1087L57.9311 21.1004C58.0102 21.0949 58.1155 21.0921 58.2474 21.0921C58.2579 21.0921 58.2633 21.1087 58.2633 21.1416C58.2633 21.1746 58.2579 21.1912 58.2474 21.1912C58.0998 21.1912 57.9904 21.2077 57.9192 21.2406C57.8481 21.2736 57.8006 21.33 57.7768 21.4097C57.7531 21.4894 57.7412 21.6118 57.7412 21.7768V22.6016H59.4258V21.7603C59.4258 21.5954 59.4139 21.473 59.3903 21.3932C59.3665 21.3135 59.3203 21.2599 59.2518 21.2324C59.1832 21.205 59.0752 21.1912 58.9276 21.1912C58.9117 21.1912 58.9037 21.1746 58.9037 21.1416C58.9037 21.1087 58.9117 21.0921 58.9276 21.0921C59.0592 21.0921 59.1622 21.095 59.2359 21.1004L59.6551 21.1087L60.0585 21.1004C60.1377 21.0949 60.243 21.0921 60.3748 21.0921C60.3854 21.0921 60.3905 21.1087 60.3905 21.1416C60.3905 21.1746 60.3854 21.1912 60.3748 21.1912C60.2272 21.1912 60.1178 21.2077 60.0467 21.2406C59.9755 21.2736 59.928 21.33 59.9042 21.4097C59.8806 21.4894 59.8686 21.6118 59.8686 21.7768V23.6078C59.8686 23.7729 59.8806 23.8952 59.9042 23.9749C59.928 24.0546 59.9755 24.1082 60.0467 24.1357C60.1178 24.1633 60.2272 24.1769 60.3748 24.1769Z" fill="#939393"/>
<path fill-rule="evenodd" clip-rule="evenodd" d="M68.5058 24.1769C68.5164 24.1769 68.5216 24.1935 68.5216 24.2265C68.5216 24.2594 68.5164 24.276 68.5058 24.276C68.3687 24.276 68.2607 24.2731 68.1816 24.2677L67.7861 24.2594L67.359 24.2677C67.2852 24.2732 67.1825 24.276 67.0506 24.276C67.0348 24.276 67.0268 24.2594 67.0268 24.2265C67.0268 24.1935 67.0348 24.1769 67.0506 24.1769C67.1982 24.1769 67.3063 24.1633 67.3748 24.1357C67.4433 24.1082 67.4909 24.0546 67.5173 23.9749C67.5435 23.8952 67.5569 23.7729 67.5569 23.6078V22.7666H65.8722V23.6078C65.8722 23.7729 65.8841 23.8952 65.9078 23.9749C65.9316 24.0546 65.9791 24.1082 66.0501 24.1357C66.1214 24.1633 66.2308 24.1769 66.3783 24.1769C66.3889 24.1769 66.3943 24.1935 66.3943 24.2265C66.3943 24.2594 66.3889 24.276 66.3783 24.276C66.2412 24.276 66.1332 24.2731 66.0541 24.2677L65.6587 24.2594L65.2395 24.2677C65.1657 24.2732 65.0603 24.276 64.9231 24.276C64.9073 24.276 64.8994 24.2594 64.8994 24.2265C64.8994 24.1935 64.9073 24.1769 64.9231 24.1769C65.0708 24.1769 65.1802 24.1633 65.2513 24.1357C65.3225 24.1082 65.37 24.0546 65.3937 23.9749C65.4174 23.8952 65.4294 23.7729 65.4294 23.6078V21.7603C65.4294 21.5954 65.4174 21.473 65.3937 21.3932C65.37 21.3135 65.3238 21.2599 65.2553 21.2324C65.1868 21.205 65.0786 21.1912 64.9311 21.1912C64.9153 21.1912 64.9073 21.1746 64.9073 21.1416C64.9073 21.1087 64.9153 21.0921 64.9311 21.0921C65.0629 21.0921 65.1657 21.095 65.2395 21.1004L65.6587 21.1087L66.0621 21.1004C66.1411 21.0949 66.2466 21.0921 66.3783 21.0921C66.3889 21.0921 66.3943 21.1087 66.3943 21.1416C66.3943 21.1746 66.3889 21.1912 66.3783 21.1912C66.2308 21.1912 66.1214 21.2077 66.0501 21.2406C65.9791 21.2736 65.9316 21.33 65.9078 21.4097C65.8841 21.4894 65.8722 21.6118 65.8722 21.7768V22.6016H67.5569V21.7603C67.5569 21.5954 67.5449 21.473 67.5212 21.3932C67.4975 21.3135 67.4513 21.2599 67.3828 21.2324C67.3142 21.205 67.2061 21.1912 67.0586 21.1912C67.0426 21.1912 67.0348 21.1746 67.0348 21.1416C67.0348 21.1087 67.0426 21.0921 67.0586 21.0921C67.1903 21.0921 67.2931 21.095 67.3669 21.1004L67.7861 21.1087L68.1895 21.1004C68.2686 21.0949 68.374 21.0921 68.5058 21.0921C68.5164 21.0921 68.5216 21.1087 68.5216 21.1416C68.5216 21.1746 68.5164 21.1912 68.5058 21.1912C68.3581 21.1912 68.2487 21.2077 68.1776 21.2406C68.1064 21.2736 68.059 21.33 68.0352 21.4097C68.0115 21.4894 67.9996 21.6118 67.9996 21.7768V23.6078C67.9996 23.7729 68.0115 23.8952 68.0352 23.9749C68.059 24.0546 68.1064 24.1082 68.1776 24.1357C68.2487 24.1633 68.3581 24.1769 68.5058 24.1769Z" fill="#939393"/>
<path fill-rule="evenodd" clip-rule="evenodd" d="M99.0938 24.1543C98.988 24.1547 98.7522 24.0821 98.7266 23.9801C98.7019 23.882 98.406 21.392 98.406 21.3427C98.406 21.0578 98.2595 20.9999 98.1629 21.2327C98.1714 21.2204 97.1376 23.4952 97.0943 23.5771C97.0687 23.5525 95.8787 21.1835 95.8787 21.1835C95.6989 20.8965 95.6391 21.2971 95.6361 21.3279C95.6316 21.3771 95.3752 23.879 95.3644 23.9764C95.3502 24.1052 95.1002 24.1543 94.9939 24.1581C94.875 24.1622 94.843 24.2725 94.9975 24.2604C95.1543 24.2483 95.838 24.2409 95.9902 24.2549C96.0985 24.2648 96.0964 24.151 95.9902 24.1554C95.9138 24.1586 95.7105 24.1566 95.671 24.0145C95.6249 23.8489 95.7936 22.183 95.7936 22.1583C95.7936 22.1336 95.8207 22.0877 95.8423 22.1583C95.9934 22.4813 96.9316 24.168 96.9448 24.2021C96.9729 24.2748 96.9958 24.2759 97.0214 24.2512C97.047 24.2265 98.0077 22.1265 98.0128 22.1022C98.016 22.0859 98.0422 22.0105 98.0547 22.0473C98.0631 22.0717 98.2909 23.8533 98.2909 24.0256C98.2909 24.1528 98.0436 24.1671 97.967 24.1671C97.8861 24.1671 97.8603 24.2787 97.9706 24.2759C98.0517 24.2738 98.2662 24.2654 98.5072 24.2654C98.745 24.2654 99.01 24.273 99.0941 24.2662C99.1488 24.262 99.1673 24.1542 99.0938 24.1543Z" fill="#939393"/>
<path fill-rule="evenodd" clip-rule="evenodd" d="M73.5584 24.2696C73.2455 24.2696 72.9688 24.1955 72.7286 24.0473C72.4886 23.8991 72.3037 23.6989 72.1742 23.4466C72.0446 23.1944 71.9799 22.92 71.9799 22.6235C71.9799 22.2855 72.0649 21.9982 72.2348 21.7615C72.4049 21.5249 72.6235 21.3482 72.8906 21.2311C73.1576 21.1141 73.4288 21.0556 73.7041 21.0556C74.0225 21.0556 74.3004 21.1309 74.5378 21.2818C74.7752 21.4326 74.9575 21.6315 75.0843 21.8786C75.2112 22.1256 75.2745 22.3869 75.2745 22.6626C75.2745 22.985 75.1963 23.2671 75.0397 23.509C74.8832 23.7508 74.6741 23.938 74.4123 24.0707C74.1506 24.2033 73.866 24.2696 73.5584 24.2696ZM73.7932 24.1213C74.09 24.1213 74.3192 24.02 74.4812 23.8172C74.643 23.6143 74.724 23.3023 74.724 22.8811C74.724 22.5586 74.6687 22.2699 74.5581 22.0151C74.4475 21.7603 74.2951 21.5613 74.1008 21.4183C73.9065 21.2753 73.6852 21.2038 73.4369 21.2038C73.1456 21.2038 72.9202 21.3052 72.7611 21.508C72.6018 21.7109 72.5223 22.0021 72.5223 22.3818C72.5223 22.699 72.5762 22.9902 72.6842 23.2555C72.792 23.5207 72.9432 23.7314 73.1374 23.8874C73.3317 24.0433 73.5503 24.1213 73.7932 24.1213Z" fill="#939393"/>
<path fill-rule="evenodd" clip-rule="evenodd" d="M61.8229 21.6216L61.8351 23.6331C63.0422 22.1637 63.5109 21.4365 63.5968 21.3336C63.6418 21.2799 63.8651 20.9878 63.9706 21.0826C64.0025 21.1113 64.0038 21.1838 64.0051 21.2005C64.0094 21.2544 64.0115 21.3365 64.012 21.4449C64.0174 22.4097 64.0237 23.1607 64.0306 23.6971C64.0326 23.8598 64.0318 24.0298 64.0533 24.0873C64.0749 24.1447 64.1312 24.1552 64.1989 24.1662C64.2237 24.1703 64.322 24.1686 64.3902 24.1726C64.4067 24.1735 64.3949 24.2669 64.3807 24.2669C64.3406 24.2669 64.1841 24.2716 64.0183 24.2669C63.8524 24.2624 63.686 24.2637 63.6705 24.2637C63.6394 24.2637 63.5813 24.2661 63.496 24.271C63.4107 24.2756 63.2624 24.2762 63.2097 24.2762C63.1662 24.2762 63.1714 24.2729 63.1691 24.2692C63.1646 24.2618 63.1651 24.1909 63.1754 24.1895C63.2716 24.1753 63.4742 24.2111 63.5146 24.0601C63.5351 23.983 63.5557 23.7967 63.5595 23.6244C63.5647 23.3848 63.5696 23.039 63.571 22.5869C63.5726 22.1349 63.575 21.8193 63.5781 21.6405C63.5543 21.6695 62.0655 23.8044 61.5601 24.2136C61.4736 24.2837 61.3996 24.2798 61.3845 24.2308C61.3774 24.2074 61.3728 24.1565 61.3728 24.0798C61.3728 23.9426 61.3736 23.7118 61.3752 23.3875C61.3768 23.0632 61.3776 22.7589 61.3776 22.4746C61.3776 22.1902 61.376 21.9308 61.3731 21.6984C61.3707 21.4879 61.3614 21.2877 61.3388 21.234C61.3162 21.1804 61.2647 21.169 61.1906 21.1647C61.1763 21.1639 61.0511 21.1675 61.0202 21.1659C60.9892 21.1643 60.9664 21.1617 60.9549 21.1587C60.9474 21.1567 60.9363 21.0801 60.9422 21.0767C60.9552 21.0689 60.9772 21.07 61.0033 21.07C61.0497 21.07 61.2365 21.0688 61.3622 21.0733C61.4876 21.0781 61.6269 21.0804 61.6423 21.0804C61.6951 21.0804 61.7701 21.0776 61.8658 21.0733C61.9615 21.069 62.188 21.0675 62.2252 21.0684C62.2252 21.0684 62.2272 21.16 62.2016 21.1628C62.181 21.1653 61.9922 21.1661 61.9776 21.1682C61.9222 21.1772 61.8827 21.1827 61.8611 21.2338C61.8394 21.2847 61.8219 21.4594 61.8229 21.6216Z" fill="#939393"/>
<path fill-rule="evenodd" clip-rule="evenodd" d="M53.5462 21.6216L53.5584 23.6331C54.7655 22.1637 55.2342 21.4365 55.32 21.3336C55.3651 21.2799 55.5884 20.9878 55.6939 21.0826C55.7257 21.1113 55.7271 21.1838 55.7283 21.2005C55.7327 21.2544 55.7348 21.3365 55.7353 21.4449C55.7407 22.4097 55.7469 23.1607 55.7539 23.6971C55.7559 23.8598 55.7551 24.0298 55.7766 24.0873C55.7981 24.1447 55.8545 24.1552 55.9222 24.1662C55.9469 24.1703 56.0453 24.1686 56.1135 24.1726C56.13 24.1735 56.1182 24.2669 56.1039 24.2669C56.0639 24.2669 55.9074 24.2716 55.7416 24.2669C55.5757 24.2624 55.4093 24.2637 55.3938 24.2637C55.3627 24.2637 55.3045 24.2661 55.2193 24.271C55.134 24.2756 54.9857 24.2762 54.933 24.2762C54.8895 24.2762 54.8947 24.2729 54.8924 24.2692C54.8879 24.2618 54.8884 24.1909 54.8986 24.1895C54.9949 24.1753 55.1975 24.2111 55.2379 24.0601C55.2584 23.983 55.2789 23.7967 55.2828 23.6244C55.288 23.3848 55.2929 23.039 55.2943 22.5869C55.2959 22.1349 55.2983 21.8193 55.3014 21.6405C55.2776 21.6695 53.7888 23.8044 53.2834 24.2136C53.1969 24.2837 53.1229 24.2798 53.1078 24.2308C53.1006 24.2074 53.0961 24.1565 53.0961 24.0798C53.0961 23.9426 53.0969 23.7118 53.0985 23.3875C53.1001 23.0632 53.1009 22.7589 53.1009 22.4746C53.1009 22.1902 53.0993 21.9308 53.0964 21.6984C53.094 21.4879 53.0848 21.2877 53.0621 21.234C53.0395 21.1804 52.988 21.169 52.9138 21.1647C52.8996 21.1639 52.7744 21.1675 52.7435 21.1659C52.7125 21.1643 52.6897 21.1617 52.6782 21.1587C52.6707 21.1567 52.6596 21.0801 52.6655 21.0767C52.6786 21.0689 52.7005 21.07 52.7266 21.07C52.7731 21.07 52.9598 21.0688 53.0854 21.0733C53.2109 21.0781 53.3502 21.0804 53.3657 21.0804C53.4184 21.0804 53.4934 21.0776 53.5891 21.0733C53.6848 21.069 53.9113 21.0675 53.9485 21.0684C53.9485 21.0684 53.9506 21.16 53.9249 21.1628C53.9043 21.1653 53.7155 21.1661 53.7009 21.1682C53.6455 21.1772 53.606 21.1827 53.5844 21.2338C53.5627 21.2847 53.5451 21.4594 53.5462 21.6216Z" fill="#939393"/>
</svg>
