<svg width="70" height="42" viewBox="0 0 70 42" fill="none" xmlns="http://www.w3.org/2000/svg">
<rect y="12.9734" width="65" height="29" rx="14.5" transform="rotate(-11.513 0 12.9734)" fill="url(#paint0_linear_128_1030)" fill-opacity="0.7"/>
<path d="M22.058 29.9117L22.5884 29.8037C25.4678 29.2172 26.9077 28.9238 27.6198 27.8475C28.3319 26.7711 28.0311 25.3332 27.446 22.4609L27.3364 21.9229C26.7515 19.0511 26.4582 17.6112 25.3895 16.8975C24.3207 16.1839 22.8731 16.4787 19.9937 17.0652L19.4633 17.1733C16.5834 17.7599 15.1439 18.0531 14.4318 19.1295C13.7198 20.2058 14.0129 21.6448 14.598 24.5175L14.7076 25.0556C15.2927 27.9279 15.5859 29.3673 16.6622 30.0794C17.7386 30.7915 19.1781 30.4983 22.058 29.9117Z" fill="#0077FF"/>
<path d="M22.0619 26.2093C19.1897 26.7943 17.0406 25.1566 16.2983 21.8589L17.7531 21.5626C18.2939 23.9859 19.6109 24.7928 20.5021 24.8304L19.7535 21.1551L21.1481 20.871L21.5756 22.9698C22.3755 22.7124 23.037 21.5832 23.1108 20.4713L24.482 20.192C24.5263 21.5325 23.7889 22.6771 23.2098 23.2053C23.934 23.3895 25.1647 24.007 25.8809 25.4314L24.3732 25.7385C23.8494 24.7955 22.9098 24.1739 21.8427 24.2809L22.2286 26.1753L22.0619 26.2093Z" fill="white"/>
<path d="M30.4458 15.3444L32.1214 15.0031L37.1529 25.2755L39.2694 24.8444L39.882 13.4223L41.5576 13.081L40.8095 26.0921L36.2236 27.0262L30.4458 15.3444ZM45.8349 25.0685L43.32 12.722L44.9074 12.3987L46.0032 17.7782L48.3843 17.2932L51.1688 11.1233L53.0208 10.7461L49.921 17.6232L55.712 23.0567L53.7719 23.4518L48.7778 18.7745L46.3085 19.2775L47.4223 24.7452L45.8349 25.0685Z" fill="#2A2A2A"/>
<defs>
<linearGradient id="paint0_linear_128_1030" x1="24.0389" y1="13.7974" x2="51.2313" y2="53.9922" gradientUnits="userSpaceOnUse">
<stop stop-color="white"/>
<stop offset="0.60094" stop-color="#A2CDE1"/>
<stop offset="1" stop-color="#29AAED"/>
</linearGradient>
</defs>
</svg>
