<svg width="103" height="54" viewBox="0 0 103 54" fill="none" xmlns="http://www.w3.org/2000/svg">
<rect y="5.77356" width="100" height="48" rx="24" transform="rotate(-3.30984 0 5.77356)" fill="url(#paint0_linear_71_259)"/>
<path d="M35.5969 43.7817L36.9271 43.7048C44.1484 43.2872 47.7597 43.0783 49.8726 40.706C51.9856 38.3336 51.7576 34.7248 51.341 27.5214L51.263 26.172C50.8465 18.97 50.6377 15.3587 48.2845 13.2447C45.9313 11.1306 42.3008 11.3405 35.0796 11.7582L33.7494 11.8351C26.5269 12.2528 22.9169 12.4616 20.804 14.8339C18.691 17.2063 18.8997 20.815 19.3164 28.0196L19.3944 29.3689C19.811 36.5723 20.0198 40.1822 22.3921 42.2952C24.7645 44.4082 28.3744 44.1994 35.5969 43.7817Z" fill="#0077FF"/>
<path d="M36.9073 34.7627C29.7039 35.1793 25.0433 30.4344 24.3931 22.1393L28.0414 21.9284C28.5079 28.0223 31.4332 30.4508 33.5913 30.8554L33.0583 21.6382L36.5558 21.4359L36.8602 26.6995C38.8993 26.3533 40.9077 23.8345 41.4781 21.1513L44.9169 20.9524C44.554 24.2339 42.3553 26.7638 40.7589 27.8472C42.4586 28.5503 45.2401 30.487 46.4848 34.2088L42.7037 34.4275C41.7588 31.946 39.6879 30.1016 37.0504 29.9874L37.3252 34.7385L36.9073 34.7627Z" fill="white"/>
<path d="M59.2384 19.2759L60.9456 19.1772L64.4599 30.0625L66.6163 29.9377L68.8524 18.7199L70.5595 18.6212L67.9625 31.3924L63.2903 31.6627L59.2384 19.2759ZM73.0826 31.0963L72.3551 18.5174L73.9724 18.4238L74.2894 23.9047L76.7153 23.7644L80.3518 18.0549L82.2386 17.9458L78.1893 24.3102L83.1458 30.5144L81.1691 30.6287L76.8935 25.2866L74.3777 25.4321L74.6999 31.0028L73.0826 31.0963Z" fill="#2A2A2A"/>
<defs>
<linearGradient id="paint0_linear_71_259" x1="36.9829" y1="7.13739" x2="83.1241" y2="70.5323" gradientUnits="userSpaceOnUse">
<stop stop-color="white"/>
<stop offset="0.60094" stop-color="#A2CDE1"/>
<stop offset="1" stop-color="#29AAED"/>
</linearGradient>
</defs>
</svg>
