<svg width="32" height="32" viewBox="0 0 32 32" fill="none" xmlns="http://www.w3.org/2000/svg">
<path d="M9.37354 0.110798C7.67111 0.19115 6.50835 0.463834 5.49227 0.861972C4.44044 1.27202 3.54881 1.82155 2.66182 2.71217C1.77379 3.60331 1.22844 4.49652 0.821506 5.54941C0.427516 6.56808 0.160533 7.7314 0.0853556 9.43487C0.0107156 11.1415 -0.00640125 11.6858 0.00191875 16.0306C0.0102068 20.3748 0.0293812 20.9202 0.110764 22.6273C0.192143 24.3293 0.46381 25.4915 0.861944 26.5081C1.27251 27.56 1.82148 28.4511 2.71261 29.3386C3.60323 30.2261 4.49695 30.771 5.55033 31.1785C6.56796 31.5719 7.73177 31.8399 9.43473 31.9146C11.1413 31.9898 11.6861 32.0064 16.0298 31.9981C20.3756 31.9898 20.9204 31.9706 22.627 31.8897C24.3294 31.8083 25.4911 31.5356 26.5083 31.1385C27.5601 30.7269 28.4517 30.179 29.3387 29.2878C30.2257 28.3972 30.7711 27.5035 31.178 26.4501C31.572 25.4324 31.84 24.2686 31.9141 22.5667C31.9888 20.859 32.0064 20.3137 31.9981 15.9694C31.9898 11.6246 31.9701 11.0803 31.8893 9.37423C31.8084 7.67074 31.5357 6.50899 31.1381 5.49187C30.727 4.44003 30.1786 3.5494 29.2879 2.66137C28.3973 1.77438 27.5036 1.22797 26.4502 0.822058C25.4321 0.428065 24.2688 0.159524 22.5658 0.0859112C20.8592 0.0102248 20.3144 -0.00635437 15.9692 0.00193683C11.625 0.010228 11.0801 0.0288968 9.37354 0.110798ZM9.56019 29.0348C8.0003 28.9669 7.15325 28.7077 6.58872 28.4905C5.84117 28.2012 5.30774 27.8544 4.74631 27.2971C4.18592 26.7378 3.83806 26.2059 3.54621 25.4599C3.32691 24.8953 3.06306 24.0493 2.98997 22.4894C2.91065 20.803 2.89251 20.2971 2.88473 16.0249C2.87644 11.7537 2.89197 11.2477 2.9656 9.55982C3.03246 8.00096 3.29324 7.15285 3.50992 6.58882C3.79917 5.84023 4.14494 5.30783 4.70328 4.7464C5.26262 4.18496 5.7945 3.83814 6.541 3.54629C7.10502 3.32596 7.95107 3.06416 9.51041 2.99004C11.1978 2.91019 11.7032 2.89309 15.9743 2.8848C20.2465 2.87649 20.7524 2.89154 22.4404 2.96567C23.9992 3.03357 24.8473 3.29175 25.4108 3.51C26.1588 3.79926 26.6923 4.14401 27.2532 4.70337C27.8141 5.26274 28.162 5.79358 28.4538 6.54164C28.6741 7.10411 28.9359 7.95119 29.0095 9.51005C29.0899 11.1975 29.108 11.7034 29.1158 15.9746C29.1241 20.2468 29.1086 20.7527 29.0344 22.4396C28.9665 23.9995 28.7078 24.8471 28.4901 25.4122C28.2008 26.1592 27.855 26.6927 27.2962 27.2541C26.7374 27.8135 26.2055 28.1623 25.4585 28.4542C24.8955 28.674 24.0485 28.9363 22.4901 29.0105C20.8028 29.0898 20.2973 29.1079 16.0246 29.1157C11.7535 29.124 11.2481 29.1079 9.56019 29.0348ZM22.6037 7.44731C22.6057 8.50694 23.4673 9.3649 24.5269 9.36283C25.587 9.36076 26.445 8.49968 26.4435 7.44005C26.4414 6.38042 25.5798 5.52195 24.5197 5.52402C23.4596 5.52609 22.6016 6.38768 22.6037 7.44731ZM7.78467 16.0155C7.79347 20.5532 11.4788 24.2235 16.0153 24.2147C20.5523 24.2059 24.2247 20.5215 24.2159 15.9839C24.2071 11.4479 20.5212 7.77546 15.9837 7.78427C11.4471 7.79308 7.77584 11.479 7.78467 16.0155ZM10.6664 16.0098C10.6613 13.0648 13.0449 10.6723 15.9894 10.6671C18.9344 10.6614 21.3274 13.044 21.3331 15.9896C21.3388 18.9352 18.9552 21.3271 16.0096 21.3329C13.0651 21.3386 10.6721 18.9554 10.6664 16.0098Z" fill="url(#paint0_linear_118_1328)"/>
<defs>
<linearGradient id="paint0_linear_118_1328" x1="16" y1="0" x2="16" y2="32" gradientUnits="userSpaceOnUse">
<stop stop-color="#C51EA9"/>
<stop offset="0.293269" stop-color="#D22097"/>
<stop offset="0.698907" stop-color="#E75D5A"/>
<stop offset="1" stop-color="#F2A328"/>
</linearGradient>
</defs>
</svg>
