<svg width="32" height="32" viewBox="0 0 32 32" fill="none" xmlns="http://www.w3.org/2000/svg">
<path d="M15.3434 32H16.6758C23.9091 32 27.5264 32 29.7728 29.7536C32.0192 27.5072 32 23.8913 32 16.6758V15.3242C32 8.11008 32 4.49281 29.7728 2.24641C27.5456 6.4373e-06 23.9091 0 16.6758 0H15.3434C8.1088 0 4.4928 6.4373e-06 2.24639 2.24641C-1.43051e-06 4.49281 0 8.10753 0 15.3242V16.6758C0 23.8913 -1.43051e-06 27.5072 2.24639 29.7536C4.4928 32 8.1088 32 15.3434 32Z" fill="#0077FF"/>
<path d="M17.1722 23.0717C9.95684 23.0717 5.57796 18.0656 5.40771 9.74687H9.06212C9.17604 15.8576 11.9562 18.4509 14.0874 18.9795V9.74687H17.5908V15.0192C19.6464 14.7914 21.7969 12.3926 22.5213 9.74687H25.9658C25.4141 13.0019 23.073 15.4006 21.4167 16.3901C23.073 17.1901 25.738 19.2842 26.7658 23.0717H22.9783C22.1783 20.5398 20.2174 18.5789 17.5908 18.3126V23.0717H17.1722Z" fill="white"/>
</svg>
