<svg width="14" height="14" viewBox="0 0 14 14" fill="none" xmlns="http://www.w3.org/2000/svg">
<path fill-rule="evenodd" clip-rule="evenodd" d="M6.73152 13.0381C6.74914 13.0483 6.76299 13.0562 6.77279 13.0617L6.78908 13.0708C6.91909 13.1422 7.08036 13.1416 7.21049 13.071L7.22721 13.0617C7.23701 13.0562 7.25086 13.0483 7.26848 13.0381C7.30372 13.0177 7.35407 12.9879 7.41738 12.9489C7.54394 12.871 7.7226 12.7561 7.93602 12.6053C8.36214 12.3043 8.93069 11.8577 9.50048 11.2743C10.6346 10.1132 11.8125 8.36859 11.8125 6.125C11.8125 3.46713 9.65787 1.3125 7 1.3125C4.34213 1.3125 2.1875 3.46713 2.1875 6.125C2.1875 8.36859 3.36544 10.1132 4.49952 11.2743C5.06931 11.8577 5.63786 12.3043 6.06398 12.6053C6.2774 12.7561 6.45606 12.871 6.58262 12.9489C6.64593 12.9879 6.69628 13.0177 6.73152 13.0381ZM7 7.875C7.9665 7.875 8.75 7.0915 8.75 6.125C8.75 5.1585 7.9665 4.375 7 4.375C6.0335 4.375 5.25 5.1585 5.25 6.125C5.25 7.0915 6.0335 7.875 7 7.875Z" fill="#0060DF"/>
</svg>
