<svg width="40" height="36" viewBox="0 0 40 36" fill="none" xmlns="http://www.w3.org/2000/svg">
<path d="M12.18 17.2621H2.8C2.96 7.92206 4.8 6.38206 10.54 2.98206C11.2 2.58206 11.42 1.74206 11.02 1.06206C10.9279 0.904611 10.8053 0.767083 10.6595 0.657498C10.5137 0.547912 10.3475 0.468462 10.1706 0.423782C9.99376 0.379101 9.80977 0.370086 9.62939 0.39726C9.44901 0.424434 9.27585 0.487255 9.12 0.582057C2.36 4.58206 0 7.02206 0 18.6421V29.4221C0 32.8421 2.78 35.6021 6.18 35.6021H12.18C15.7 35.6021 18.36 32.9421 18.36 29.4221V23.4221C18.36 19.9221 15.7 17.2621 12.18 17.2621ZM33.818 17.2621H24.438C24.598 7.92206 26.438 6.38206 32.178 2.98206C32.838 2.58206 33.058 1.74206 32.658 1.06206C32.5638 0.90413 32.4393 0.766377 32.2916 0.656712C32.144 0.547047 31.9762 0.467632 31.7978 0.423029C31.6193 0.378426 31.4339 0.369514 31.252 0.396805C31.0701 0.424096 30.8955 0.487052 30.738 0.582057C23.978 4.58206 21.618 7.02206 21.618 18.6621V29.4421C21.618 32.8621 24.398 35.6221 27.798 35.6221H33.798C37.318 35.6221 39.978 32.9621 39.978 29.4421V23.4421C39.998 19.9221 37.338 17.2621 33.818 17.2621Z" fill="#FB8A2E"/>
</svg>
